<?xml version="1.0" encoding="utf-8"?>
<!-- Generator: Adobe Illustrator 24.3.0, SVG Export Plug-In . SVG Version: 6.00 Build 0)  -->
<svg version="1.1" id="Layer_1" xmlns="http://www.w3.org/2000/svg" xmlns:xlink="http://www.w3.org/1999/xlink" x="0px" y="0px"
	 viewBox="0 0 120 120" enable-background="new 0 0 120 120" xml:space="preserve">
<g>
	<path fill="#7CBB00" d="M34.16,28.255v58.624h56.67V28.255H34.16z M84.968,76.132c-2.698,0-4.886,2.188-4.886,4.885H44.907
		c0-2.697-2.187-4.885-4.886-4.885v-37.13c2.699,0,4.886-2.187,4.886-4.885h35.175c0,2.698,2.188,4.885,4.886,4.885V76.132z"/>
	<g>
		<path fill="#F65314" d="M69.335,82.644c-2.079,0-3.963-0.817-5.363-2.141v10.285l5.374-2.589l5.374,2.589V80.484
			C73.317,81.819,71.424,82.644,69.335,82.644z"/>
		<path fill="#F65314" d="M58.586,68.561H45.885c-0.404,0-0.733,0.328-0.733,0.732c0,0.405,0.328,0.733,0.733,0.733h12.701
			c0.404,0,0.733-0.328,0.733-0.733C59.319,68.889,58.99,68.561,58.586,68.561z"/>
		<path fill="#F65314" d="M51.746,74.424h-5.861c-0.404,0-0.733,0.328-0.733,0.733c0,0.404,0.328,0.732,0.733,0.732h5.861
			c0.404,0,0.732-0.328,0.732-0.732C52.478,74.752,52.15,74.424,51.746,74.424z"/>
	</g>
	<path fill="#FFBB00" d="M69.335,67.01c-4.317,0-7.816,3.5-7.816,7.817c0,4.316,3.499,7.816,7.816,7.816
		c4.317,0,7.817-3.5,7.817-7.816C77.152,70.51,73.652,67.01,69.335,67.01z M69.335,77.758c-1.618,0-2.931-1.312-2.931-2.931
		c0-1.619,1.312-2.932,2.931-2.932c1.619,0,2.932,1.312,2.932,2.932C72.266,76.446,70.954,77.758,69.335,77.758z"/>
	<g>
		<path fill="#1A171B" d="M78.898,66.435c-0.319,0.249-0.376,0.71-0.127,1.028c1.322,1.691,2.164,3.707,2.436,5.83
			c0.048,0.37,0.363,0.641,0.727,0.641c0.031,0,0.062-0.002,0.094-0.006c0.401-0.052,0.686-0.419,0.634-0.819
			c-0.306-2.386-1.251-4.649-2.734-6.548C79.678,66.241,79.217,66.186,78.898,66.435z"/>
		<path fill="#1A171B" d="M75.234,62.753c-0.362-0.177-0.801-0.027-0.981,0.337c-0.178,0.364-0.026,0.803,0.337,0.98
			c0.563,0.274,1.111,0.6,1.63,0.965c0.129,0.09,0.275,0.133,0.422,0.133c0.229,0,0.457-0.107,0.6-0.311
			c0.232-0.331,0.152-0.788-0.178-1.021C76.482,63.427,75.867,63.063,75.234,62.753z"/>
		<path fill="#1A171B" d="M69.335,71.162c-2.02,0-3.664,1.645-3.664,3.664c0,2.021,1.644,3.664,3.664,3.664
			c2.021,0,3.665-1.644,3.665-3.664C73,72.807,71.355,71.162,69.335,71.162z M69.335,77.026c-1.212,0-2.198-0.987-2.198-2.199
			c0-1.211,0.986-2.198,2.198-2.198c1.212,0,2.198,0.987,2.198,2.198C71.533,76.038,70.547,77.026,69.335,77.026z"/>
		<path fill="#1A171B" d="M90.83,27.522H34.16c-0.405,0-0.733,0.329-0.733,0.733V86.88c0,0.404,0.328,0.732,0.733,0.732h29.078
			v3.176c0,0.252,0.131,0.486,0.344,0.62c0.214,0.134,0.48,0.15,0.708,0.04l5.056-2.436l5.056,2.436
			c0.1,0.049,0.21,0.073,0.318,0.073c0.136,0,0.271-0.039,0.39-0.113c0.213-0.134,0.344-0.368,0.344-0.62v-3.176H90.83
			c0.405,0,0.733-0.328,0.733-0.732V28.255C91.563,27.851,91.235,27.522,90.83,27.522z M73.986,89.621l-4.322-2.083
			c-0.101-0.049-0.209-0.072-0.318-0.072s-0.218,0.024-0.318,0.072l-4.322,2.083v-7.618c1.336,0.865,2.924,1.373,4.63,1.373
			c1.716,0,3.312-0.513,4.651-1.386V89.621z M69.335,81.91c-3.905,0-7.083-3.177-7.083-7.084c0-3.906,3.178-7.083,7.083-7.083
			c3.906,0,7.084,3.177,7.084,7.083C76.419,78.734,73.241,81.91,69.335,81.91z M90.097,86.148H75.453v-5.36
			c1.502-1.541,2.432-3.643,2.432-5.961c0-4.714-3.836-8.549-8.55-8.549c-4.714,0-8.55,3.835-8.55,8.549
			c0,2.329,0.939,4.44,2.453,5.984v5.337H34.892v-57.16h55.205V86.148z"/>
		<path fill="#1A171B" d="M28.297,85.275c-0.405,0-0.733,0.328-0.733,0.732v4.781c0,0.404,0.328,0.733,0.733,0.733
			c0.404,0,0.732-0.329,0.732-0.733v-4.781C29.029,85.603,28.701,85.275,28.297,85.275z"/>
		<path fill="#1A171B" d="M28.297,42.179c-0.405,0-0.733,0.329-0.733,0.733v37.232c0,0.404,0.328,0.732,0.733,0.732
			c0.404,0,0.732-0.328,0.732-0.732V42.912C29.029,42.508,28.701,42.179,28.297,42.179z"/>
		<path fill="#1A171B" d="M79.838,57.568c0-0.404-0.328-0.732-0.732-0.732H64.46c-0.405,0-0.733,0.328-0.733,0.732
			c0,0.404,0.328,0.732,0.733,0.732h14.646C79.51,58.3,79.838,57.972,79.838,57.568z"/>
		<path fill="#1A171B" d="M45.885,58.3h13.689c0.404,0,0.732-0.328,0.732-0.732c0-0.404-0.328-0.732-0.732-0.732H45.885
			c-0.404,0-0.733,0.328-0.733,0.732C45.152,57.972,45.48,58.3,45.885,58.3z"/>
		<path fill="#1A171B" d="M65.425,62.698H57.62c-0.404,0-0.733,0.328-0.733,0.732c0,0.404,0.329,0.733,0.733,0.733h7.805
			c0.405,0,0.733-0.329,0.733-0.733C66.158,63.026,65.83,62.698,65.425,62.698z"/>
		<path fill="#1A171B" d="M45.885,64.163h6.85c0.404,0,0.732-0.329,0.732-0.733c0-0.404-0.328-0.732-0.732-0.732h-6.85
			c-0.404,0-0.733,0.328-0.733,0.732C45.152,63.834,45.48,64.163,45.885,64.163z"/>
		<path fill="#1A171B" d="M79.838,51.704c0-0.405-0.328-0.733-0.732-0.733H59.574c-0.404,0-0.732,0.328-0.732,0.733
			c0,0.404,0.328,0.732,0.732,0.732h19.531C79.51,52.437,79.838,52.109,79.838,51.704z"/>
		<path fill="#1A171B" d="M45.885,52.437h8.803c0.405,0,0.733-0.328,0.733-0.732c0-0.405-0.328-0.733-0.733-0.733h-8.803
			c-0.404,0-0.733,0.328-0.733,0.733C45.152,52.109,45.48,52.437,45.885,52.437z"/>
		<path fill="#1A171B" d="M67.636,45.841c0,0.404,0.328,0.732,0.733,0.732h10.736c0.404,0,0.732-0.328,0.732-0.732
			c0-0.405-0.328-0.733-0.732-0.733H68.369C67.964,45.108,67.636,45.436,67.636,45.841z"/>
		<path fill="#1A171B" d="M45.885,46.573h17.598c0.404,0,0.732-0.328,0.732-0.732c0-0.405-0.328-0.733-0.732-0.733H45.885
			c-0.404,0-0.733,0.328-0.733,0.733C45.152,46.245,45.48,46.573,45.885,46.573z"/>
		<path fill="#1A171B" d="M55.655,40.711h13.679c0.405,0,0.733-0.328,0.733-0.733c0-0.404-0.328-0.732-0.733-0.732H55.655
			c-0.404,0-0.733,0.328-0.733,0.732C54.923,40.383,55.251,40.711,55.655,40.711z"/>
	</g>
</g>
</svg>
