<?xml version="1.0" encoding="utf-8"?>
<!-- Generator: Adobe Illustrator 22.0.0, SVG Export Plug-In . SVG Version: 6.00 Build 0)  -->
<svg version="1.1" xmlns="http://www.w3.org/2000/svg" xmlns:xlink="http://www.w3.org/1999/xlink" x="0px" y="0px"
	 viewBox="0 0 256 256" style="enable-background:new 0 0 256 256;" xml:space="preserve">
<style type="text/css">
	.st0{display:none;}
	.st1{display:inline;}
	.st2{fill:none;stroke:#6B1D1D;stroke-width:0.5;stroke-miterlimit:10;}
	.st3{fill:#3A312A;}
	.st4{fill:#87796F;}
	.st5{fill:#D5DE58;}
	.st6{fill:#695B51;}
	.st7{fill:#FCE8CB;}
	.st8{fill:#F16C7A;}
	.st9{fill:#8AC6DD;}
	.st10{fill:#DECAAD;}
	.st11{fill:#D6DF58;}
	.st12{fill-rule:evenodd;clip-rule:evenodd;fill:#FCE8CB;}
	.st13{fill:#F5978A;}
	.st14{fill:#D7E057;}
	.st15{fill-rule:evenodd;clip-rule:evenodd;fill:#87796F;}
	.st16{fill:#6CA8BF;}
	.st17{fill:#B9C239;}
	.st18{fill:#D34E5C;}
	.st19{fill:#FAE6CA;}
	.st20{fill:#F8E4C8;}
	.st21{fill:#8AC5DC;}
	.st22{fill:#EF6D7A;}
	.st23{fill:#EB6E7A;}
	.st24{fill:#89C4DB;}
	.st25{fill-rule:evenodd;clip-rule:evenodd;fill:#F16C7A;}
	.st26{fill:#F7E3C7;}
	.st27{fill:#F6E2C6;}
	.st28{fill:#ED6E7A;}
	.st29{fill:#8AC3DA;}
	.st30{fill:#D5DC57;}
	.st31{fill-rule:evenodd;clip-rule:evenodd;fill:#D7E057;}
	.st32{fill-rule:evenodd;clip-rule:evenodd;fill:#F8E4C8;}
	.st33{fill:#D4DB56;}
	.st34{fill:#F59689;}
	.st35{fill:#DDC9AC;}
	.st36{fill:#D24E5C;}
	.st37{fill:#6A5C52;}
	.st38{fill:#6CA6BE;}
	.st39{fill:#B8C136;}
	.st40{fill-rule:evenodd;clip-rule:evenodd;fill:#FAE6CA;}
</style>
<g id="Layer_2" class="st0">
	<g class="st1">
		<g>
			<line class="st2" x1="0" y1="4.829" x2="256" y2="4.829"/>
			<line class="st2" x1="0" y1="16.56" x2="256" y2="16.56"/>
			<line class="st2" x1="0" y1="28.29" x2="256" y2="28.29"/>
			<line class="st2" x1="0" y1="40.021" x2="256" y2="40.021"/>
			<line class="st2" x1="0" y1="51.751" x2="256" y2="51.751"/>
			<line class="st2" x1="0" y1="63.482" x2="256" y2="63.482"/>
			<line class="st2" x1="0" y1="75.213" x2="256" y2="75.213"/>
			<line class="st2" x1="0" y1="86.943" x2="256" y2="86.943"/>
			<line class="st2" x1="0" y1="98.674" x2="256" y2="98.674"/>
			<line class="st2" x1="0" y1="110.404" x2="256" y2="110.404"/>
			<line class="st2" x1="0" y1="122.135" x2="256" y2="122.135"/>
			<line class="st2" x1="0" y1="133.865" x2="256" y2="133.865"/>
			<line class="st2" x1="0" y1="145.596" x2="256" y2="145.596"/>
			<line class="st2" x1="0" y1="157.326" x2="256" y2="157.326"/>
			<line class="st2" x1="0" y1="169.057" x2="256" y2="169.057"/>
			<line class="st2" x1="0" y1="180.788" x2="256" y2="180.788"/>
			<line class="st2" x1="0" y1="192.518" x2="256" y2="192.518"/>
			<line class="st2" x1="0" y1="204.249" x2="256" y2="204.249"/>
			<line class="st2" x1="0" y1="215.979" x2="256" y2="215.979"/>
			<line class="st2" x1="0" y1="227.71" x2="256" y2="227.71"/>
			<line class="st2" x1="0" y1="239.44" x2="256" y2="239.44"/>
			<line class="st2" x1="0" y1="251.171" x2="256" y2="251.171"/>
		</g>
		<g>
			<line class="st2" x1="251.171" y1="0" x2="251.171" y2="256"/>
			<line class="st2" x1="239.44" y1="0" x2="239.44" y2="256"/>
			<line class="st2" x1="227.71" y1="0" x2="227.71" y2="256"/>
			<line class="st2" x1="215.979" y1="0" x2="215.979" y2="256"/>
			<line class="st2" x1="204.249" y1="0" x2="204.249" y2="256"/>
			<line class="st2" x1="192.518" y1="0" x2="192.518" y2="256"/>
			<line class="st2" x1="180.788" y1="0" x2="180.788" y2="256"/>
			<line class="st2" x1="169.057" y1="0" x2="169.057" y2="256"/>
			<line class="st2" x1="157.326" y1="0" x2="157.326" y2="256"/>
			<line class="st2" x1="145.596" y1="0" x2="145.596" y2="256"/>
			<line class="st2" x1="133.865" y1="0" x2="133.865" y2="256"/>
			<line class="st2" x1="122.135" y1="0" x2="122.135" y2="256"/>
			<line class="st2" x1="110.404" y1="0" x2="110.404" y2="256"/>
			<line class="st2" x1="98.674" y1="0" x2="98.674" y2="256"/>
			<line class="st2" x1="86.943" y1="0" x2="86.943" y2="256"/>
			<line class="st2" x1="75.213" y1="0" x2="75.213" y2="256"/>
			<line class="st2" x1="63.482" y1="0" x2="63.482" y2="256"/>
			<line class="st2" x1="51.751" y1="0" x2="51.751" y2="256"/>
			<line class="st2" x1="40.021" y1="0" x2="40.021" y2="256"/>
			<line class="st2" x1="28.29" y1="0" x2="28.29" y2="256"/>
			<line class="st2" x1="16.56" y1="0" x2="16.56" y2="256"/>
			<line class="st2" x1="4.829" y1="0" x2="4.829" y2="256"/>
		</g>
	</g>
</g>
<g id="Layer_1">
	<g>
		<path class="st8" d="M88.06,180.979h143.951c3.86,0,6.989-3.129,6.989-6.989v-7.643c0-3.86-3.129-6.989-6.989-6.989H23.989
			c-3.86,0-6.989,3.129-6.989,6.989v7.643c0,3.86,3.129,6.989,6.989,6.989h51.284H88.06z"/>
		<path class="st3" d="M232.011,182.479H88.06c-0.829,0-1.5-0.671-1.5-1.5c0-0.829,0.671-1.5,1.5-1.5h143.951
			c3.026,0,5.489-2.462,5.489-5.488v-7.643c0-3.026-2.462-5.489-5.489-5.489H23.989c-3.026,0-5.489,2.462-5.489,5.489v7.643
			c0,3.026,2.462,5.488,5.489,5.488h51.284c0.829,0,1.5,0.671,1.5,1.5c0,0.829-0.671,1.5-1.5,1.5H23.989
			c-4.681,0-8.489-3.808-8.489-8.488v-7.643c0-4.681,3.808-8.489,8.489-8.489h208.022c4.681,0,8.489,3.808,8.489,8.489v7.643
			C240.5,178.671,236.692,182.479,232.011,182.479z"/>
		<rect x="37" y="180.979" class="st8" width="20" height="58.5"/>
		<path class="st3" d="M57,240.979H37c-0.829,0-1.5-0.671-1.5-1.5v-58.5c0-0.829,0.671-1.5,1.5-1.5h20c0.829,0,1.5,0.671,1.5,1.5
			v58.5C58.5,240.307,57.829,240.979,57,240.979z M38.5,237.979h17v-55.5h-17V237.979z"/>
		<rect x="199" y="180.979" class="st8" width="20" height="58.5"/>
		<path class="st3" d="M219,240.979h-20c-0.829,0-1.5-0.671-1.5-1.5v-58.5c0-0.829,0.671-1.5,1.5-1.5h20c0.829,0,1.5,0.671,1.5,1.5
			v58.5C220.5,240.307,219.829,240.979,219,240.979z M200.5,237.979h17v-55.5h-17V237.979z"/>
		<path class="st9" d="M61.332,159.359H49.989c-2.367,0-4.286-1.919-4.286-4.286V67.264c0-2.367,1.919-4.286,4.286-4.286h11.343
			c2.367,0,4.286,1.919,4.286,4.286v87.808C65.618,157.44,63.699,159.359,61.332,159.359z"/>
		<path class="st3" d="M61.332,160.858H49.989c-3.19,0-5.786-2.595-5.786-5.786V67.264c0-3.19,2.595-5.786,5.786-5.786h11.343
			c3.19,0,5.786,2.595,5.786,5.786v87.809C67.118,158.263,64.522,160.858,61.332,160.858z M49.989,64.479
			c-1.536,0-2.786,1.249-2.786,2.786v87.809c0,1.536,1.25,2.786,2.786,2.786h11.343c1.536,0,2.786-1.25,2.786-2.786V67.264
			c0-1.536-1.25-2.786-2.786-2.786H49.989z"/>
		<rect x="45.703" y="79.979" class="st8" width="19.915" height="20"/>
		<path class="st3" d="M65.618,101.479H45.703c-0.829,0-1.5-0.671-1.5-1.5v-20c0-0.829,0.671-1.5,1.5-1.5h19.915
			c0.829,0,1.5,0.671,1.5,1.5v20C67.118,100.807,66.447,101.479,65.618,101.479z M47.203,98.479h16.915v-17H47.203V98.479z"/>
		<path class="st7" d="M30.904,159.359h10.514c2.367,0,4.286-1.919,4.286-4.286V84.264c0-2.367-1.919-4.286-4.286-4.286H30.904
			c-2.367,0-4.286,1.919-4.286,4.286v70.808C26.618,157.44,28.537,159.359,30.904,159.359z"/>
		<path class="st3" d="M41.417,160.858H30.904c-3.19,0-5.786-2.595-5.786-5.786V84.265c0-3.19,2.595-5.786,5.786-5.786h10.514
			c3.19,0,5.786,2.596,5.786,5.786v70.808C47.203,158.263,44.608,160.858,41.417,160.858z M30.904,81.479
			c-1.536,0-2.786,1.25-2.786,2.786v70.808c0,1.536,1.25,2.786,2.786,2.786h10.514c1.536,0,2.786-1.25,2.786-2.786V84.265
			c0-1.536-1.249-2.786-2.786-2.786H30.904z"/>
		<rect x="26.618" y="93.98" class="st14" width="19.085" height="16.472"/>
		<path class="st3" d="M45.703,111.953H26.618c-0.829,0-1.5-0.671-1.5-1.5V93.98c0-0.829,0.671-1.5,1.5-1.5h19.085
			c0.829,0,1.5,0.671,1.5,1.5v16.473C47.203,111.281,46.532,111.953,45.703,111.953z M28.118,108.953h16.085V95.48H28.118V108.953z"
			/>
		<path class="st4" d="M176.926,39.979H91.012c-6.104,0-11.053,4.949-11.053,11.053v84.187c0,6.104,4.949,11.053,11.053,11.053
			h121.987c6.104,0,11.053-4.949,11.053-11.053V51.031c0-6.104-4.948-11.053-11.053-11.053H189.74H176.926z"/>
		<path class="st3" d="M212.999,147.771H91.012c-6.921,0-12.553-5.631-12.553-12.553V51.031c0-6.921,5.631-12.553,12.553-12.553
			h85.915c0.829,0,1.5,0.671,1.5,1.5c0,0.829-0.671,1.5-1.5,1.5H91.012c-5.268,0-9.553,4.285-9.553,9.553v84.187
			c0,5.268,4.285,9.553,9.553,9.553h121.987c5.268,0,9.553-4.286,9.553-9.553V51.031c0-5.268-4.285-9.553-9.553-9.553H189.74
			c-0.829,0-1.5-0.671-1.5-1.5c0-0.829,0.671-1.5,1.5-1.5h23.258c6.921,0,12.553,5.631,12.553,12.553v84.187
			C225.551,142.14,219.92,147.771,212.999,147.771z"/>
		<path class="st4" d="M229.382,146.268c0,7.23-5.861,13.091-13.085,13.091H87.713c-3.612,0-6.882-1.467-9.253-3.832
			c-2.365-2.371-3.832-5.641-3.832-9.259H229.382z"/>
		<path class="st3" d="M216.297,160.858H87.713c-3.889,0-7.551-1.516-10.312-4.27c-2.756-2.763-4.272-6.428-4.272-10.321
			c0-0.829,0.671-1.5,1.5-1.5h154.753c0.829,0,1.5,0.671,1.5,1.5C230.882,154.313,224.339,160.858,216.297,160.858z M76.224,147.768
			c0.325,2.526,1.467,4.864,3.298,6.7c2.192,2.186,5.102,3.391,8.191,3.391h128.585c5.88,0,10.751-4.406,11.488-10.091H76.224z"/>
		<path class="st7" d="M95.81,48.056c-4.254,0-7.702,3.448-7.702,7.702v74.734c0,4.254,3.448,7.702,7.702,7.702H208.2
			c4.254,0,7.702-3.448,7.702-7.702V55.758c0-4.254-3.448-7.702-7.702-7.702H95.81z"/>
		<path class="st3" d="M208.2,139.694H95.81c-5.074,0-9.202-4.128-9.202-9.202V55.758c0-5.074,4.128-9.202,9.202-9.202H208.2
			c5.074,0,9.202,4.128,9.202,9.202v74.734C217.402,135.566,213.274,139.694,208.2,139.694z M95.81,49.556
			c-3.42,0-6.202,2.782-6.202,6.202v74.734c0,3.42,2.782,6.202,6.202,6.202H208.2c3.42,0,6.202-2.782,6.202-6.202V55.758
			c0-3.42-2.782-6.202-6.202-6.202H95.81z"/>
		<path class="st3" d="M153.62,44.017c0,0.892-0.723,1.615-1.615,1.615c-0.892,0-1.615-0.723-1.615-1.615
			c0-0.892,0.723-1.615,1.615-1.615C152.897,42.402,153.62,43.125,153.62,44.017z"/>
		<path class="st4" d="M163.313,146.268v4.165c0,1.404-1.138,2.542-2.542,2.542h-16.24c-1.404,0-2.542-1.138-2.542-2.542v-4.165
			H163.313z"/>
		<path class="st3" d="M160.771,154.475h-16.239c-2.229,0-4.042-1.813-4.042-4.042v-4.165c0-0.829,0.671-1.5,1.5-1.5h21.323
			c0.829,0,1.5,0.671,1.5,1.5v4.165C164.813,152.662,163,154.475,160.771,154.475z M143.49,147.768v2.665
			c0,0.574,0.467,1.042,1.042,1.042h16.239c0.575,0,1.042-0.467,1.042-1.042v-2.665H143.49z"/>
		<path class="st14" d="M47.911,26.198c0,0,3.408,12.659,13.222,13.246c0,0-13.1,4.525-13.321,14.202
			c0,0-2.578-13.572-12.925-14.059C34.887,39.588,46.937,37.762,47.911,26.198z"/>
		<path class="st3" d="M47.811,55.146c-0.713,0-1.335-0.506-1.472-1.217c-0.024-0.124-2.495-12.417-11.523-12.842
			c-0.771-0.037-1.388-0.651-1.428-1.421c-0.04-0.771,0.511-1.445,1.273-1.561c0.441-0.069,10.894-1.817,11.754-12.032
			c0.061-0.725,0.634-1.301,1.359-1.367c0.737-0.062,1.393,0.399,1.583,1.101c0.032,0.116,3.259,11.626,11.863,12.14
			c0.714,0.043,1.298,0.584,1.396,1.292c0.098,0.708-0.319,1.388-0.994,1.623c-0.121,0.042-12.118,4.311-12.312,12.819
			c-0.018,0.767-0.61,1.396-1.375,1.459C47.895,55.145,47.853,55.146,47.811,55.146z M40.07,39.417
			c3.878,1.969,6.23,5.746,7.587,8.876c2.026-4.021,5.941-6.787,8.949-8.427c-4.134-1.842-6.783-5.651-8.334-8.722
			C46.479,35.504,43,38.012,40.07,39.417z"/>
		<path class="st14" d="M26.212,43.179c0,0,2.411,8.954,9.352,9.369c0,0-9.266,3.201-9.422,10.045c0,0-1.824-9.6-9.142-9.944
			C17,52.65,25.524,51.358,26.212,43.179z"/>
		<path class="st3" d="M26.141,64.094c-0.713,0-1.337-0.507-1.472-1.22c-0.016-0.082-1.704-8.441-7.739-8.726
			c-0.77-0.037-1.387-0.651-1.427-1.421c-0.04-0.771,0.511-1.445,1.273-1.561c0.296-0.047,7.364-1.243,7.942-8.113
			c0.061-0.726,0.635-1.303,1.36-1.368c0.732-0.066,1.392,0.4,1.582,1.101l0,0c0.021,0.079,2.227,7.92,7.994,8.264
			c0.715,0.043,1.299,0.584,1.396,1.293c0.098,0.709-0.319,1.388-0.996,1.622c-0.081,0.028-8.282,2.953-8.413,8.662
			c-0.018,0.767-0.611,1.397-1.376,1.461C26.224,64.092,26.182,64.094,26.141,64.094z M21.622,52.566
			c2.107,1.333,3.523,3.395,4.447,5.28c1.376-2.232,3.515-3.872,5.365-4.973c-2.287-1.269-3.884-3.35-4.941-5.224
			C25.319,49.937,23.478,51.525,21.622,52.566z"/>
		<path class="st14" d="M26.212,16.521c0,0,2.411,8.954,9.352,9.37c0,0-9.266,3.201-9.422,10.045c0,0-1.824-9.6-9.142-9.944
			C17,25.992,25.524,24.701,26.212,16.521z"/>
		<path class="st3" d="M26.141,37.437c-0.713,0-1.337-0.507-1.472-1.22c-0.016-0.082-1.704-8.442-7.739-8.726
			c-0.771-0.037-1.388-0.651-1.428-1.421c-0.04-0.771,0.511-1.445,1.273-1.56c0.296-0.047,7.364-1.243,7.942-8.114
			c0.061-0.726,0.635-1.303,1.36-1.368c0.732-0.066,1.392,0.399,1.582,1.102l0,0c0.021,0.079,2.227,7.92,7.994,8.265
			c0.714,0.043,1.299,0.584,1.396,1.293c0.098,0.709-0.32,1.388-0.996,1.622c-0.081,0.028-8.282,2.952-8.413,8.662
			c-0.018,0.767-0.611,1.397-1.376,1.461C26.224,37.435,26.182,37.437,26.141,37.437z M21.622,25.909
			c2.107,1.332,3.523,3.394,4.447,5.28c1.376-2.232,3.515-3.872,5.365-4.972c-2.287-1.269-3.884-3.35-4.941-5.224
			C25.319,23.279,23.478,24.868,21.622,25.909z"/>
		<path class="st10" d="M214.4,55.759v74.73c0,3.42-2.78,6.21-6.2,6.21h-15c3.42,0,6.2-2.79,6.2-6.21v-74.73
			c0-3.42-2.78-6.2-6.2-6.2h15C211.62,49.559,214.4,52.339,214.4,55.759z"/>
	</g>
</g>
</svg>
