<?xml version="1.0" encoding="utf-8"?>
<!-- Generator: Adobe Illustrator 24.3.0, SVG Export Plug-In . SVG Version: 6.00 Build 0)  -->
<svg version="1.1" id="Layer_1" xmlns="http://www.w3.org/2000/svg" xmlns:xlink="http://www.w3.org/1999/xlink" x="0px" y="0px"
	 viewBox="0 0 180 180" enable-background="new 0 0 180 180" xml:space="preserve">
<g>
	<g id="XMLID_529_">
		<path fill="#FF916E" d="M154.622,89.999c0,35.691-28.932,64.623-64.622,64.623c-35.691,0-64.622-28.932-64.622-64.623
			C25.378,54.31,54.31,25.378,90,25.378C125.69,25.378,154.622,54.31,154.622,89.999z"/>
	</g>
	<g>
		<g>
			<g>
				<g>
					<g>
						<path fill="#CCCBC9" d="M92.699,125.459c0-2.536,0-6.213,0-6.213h-4.943h-4.942c0,0,0,3.677,0,6.213
							c0,2.536-6.724,4.591-6.724,4.591h11.666h11.666C99.422,130.05,92.699,127.995,92.699,125.459z"/>
					</g>
					<g>
						<path fill="#CCCBC9" d="M92.699,125.303c0-2.528,0-6.057,0-6.057h-9.886c0,0,0,3.528,0,6.057H92.699z"/>
					</g>
					<g>
						<path fill="#333333" d="M100.42,130.809c0,0.554-0.438,1.001-0.979,1.001H76.07c-0.54,0-0.979-0.447-0.979-1.001l0,0
							c0-0.553,0.438-1.001,0.979-1.001h23.371C99.981,129.808,100.42,130.256,100.42,130.809L100.42,130.809z"/>
					</g>
				</g>
				<g>
					<g>
						<path fill="#333333" d="M118.736,74.207h-61.96c-1.074,0-1.945,0.891-1.945,1.99v38.549h65.85V76.197
							C120.681,75.098,119.811,74.207,118.736,74.207z"/>
					</g>
					<g>
						<rect x="57.952" y="76.76" fill="#FFFFFF" width="59.606" height="35.433"/>
					</g>
					<g>
						<path fill="#FFFFFF" d="M54.831,114.356v5.912c0,1.1,0.871,1.991,1.945,1.991h61.96c1.074,0,1.944-0.892,1.944-1.991v-5.912
							H54.831z"/>
					</g>
					<g>
						<path fill="#CCCBC9" d="M89.495,118.309c0,0.982-0.779,1.78-1.739,1.78c-0.96,0-1.739-0.798-1.739-1.78
							c0-0.983,0.779-1.78,1.739-1.78C88.716,116.528,89.495,117.325,89.495,118.309z"/>
					</g>
				</g>
			</g>
		</g>
		<g>
			<g>
				<polygon fill="#333333" points="32.688,131.842 32.677,139.875 148.166,139.875 148.179,131.842 				"/>
			</g>
			<g>
				<g>
					<polygon fill="#333333" points="32.688,131.842 32.688,133.503 148.176,133.6 148.179,131.842 					"/>
				</g>
			</g>
			<g>
				<g>
					<polygon fill="#FFFFFF" points="144.107,131.842 144.104,133.596 144.438,133.596 144.44,131.842 					"/>
				</g>
				<g>
					<polygon fill="#FFFFFF" points="138.953,131.842 138.951,133.591 139.284,133.592 139.287,131.842 					"/>
				</g>
				<g>
					<polygon fill="#FFFFFF" points="133.801,131.842 133.798,133.588 134.131,133.588 134.134,131.842 					"/>
				</g>
				<g>
					<polygon fill="#FFFFFF" points="128.647,131.842 128.646,133.583 128.979,133.583 128.98,131.842 					"/>
				</g>
				<g>
					<polygon fill="#FFFFFF" points="123.494,131.842 123.492,133.578 123.825,133.578 123.827,131.842 					"/>
				</g>
				<g>
					<polygon fill="#FFFFFF" points="118.342,131.842 118.339,133.574 118.672,133.574 118.675,131.842 					"/>
				</g>
				<g>
					<polygon fill="#FFFFFF" points="113.188,131.842 113.186,133.57 113.519,133.57 113.522,131.842 					"/>
				</g>
				<g>
					
						<rect x="107.338" y="132.538" transform="matrix(0.0023 -1 1 0.0023 -24.7487 240.6039)" fill="#FFFFFF" width="1.725" height="0.333"/>
				</g>
				<g>
					<polygon fill="#FFFFFF" points="102.883,131.842 102.88,133.563 103.213,133.563 103.215,131.842 					"/>
				</g>
				<g>
					<polygon fill="#FFFFFF" points="97.729,131.842 97.727,133.558 98.06,133.558 98.062,131.842 					"/>
				</g>
				<g>
					<polygon fill="#FFFFFF" points="92.575,131.842 92.573,133.553 92.906,133.553 92.909,131.842 					"/>
				</g>
				<g>
					<polygon fill="#FFFFFF" points="87.422,131.842 87.42,133.548 87.753,133.549 87.756,131.842 					"/>
				</g>
				<g>
					<polygon fill="#FFFFFF" points="82.27,131.842 82.267,133.544 82.6,133.544 82.604,131.842 					"/>
				</g>
				<g>
					<polygon fill="#FFFFFF" points="77.117,131.842 77.114,133.541 77.447,133.541 77.45,131.842 					"/>
				</g>
				<g>
					<polygon fill="#FFFFFF" points="71.964,131.842 71.961,133.536 72.295,133.537 72.297,131.842 					"/>
				</g>
				<g>
					<polygon fill="#FFFFFF" points="66.811,131.842 66.809,133.532 67.141,133.532 67.143,131.842 					"/>
				</g>
				<g>
					<rect x="61.656" y="131.842" fill="#FFFFFF" width="0.333" height="1.686"/>
				</g>
				<g>
					<polygon fill="#FFFFFF" points="56.504,131.842 56.501,133.522 56.834,133.522 56.837,131.842 					"/>
				</g>
				<g>
					<polygon fill="#FFFFFF" points="51.351,131.842 51.349,133.519 51.682,133.52 51.685,131.842 					"/>
				</g>
				<g>
					<polygon fill="#FFFFFF" points="46.198,131.842 46.194,133.515 46.528,133.515 46.531,131.842 					"/>
				</g>
				<g>
					<polygon fill="#FFFFFF" points="41.045,131.842 41.042,133.511 41.376,133.511 41.378,131.842 					"/>
				</g>
				<g>
					<polygon fill="#FFFFFF" points="35.892,131.842 35.89,133.507 36.223,133.507 36.225,131.842 					"/>
				</g>
			</g>
		</g>
		<g id="XMLID_300_">
			<g id="XMLID_309_">
				<path fill-rule="evenodd" clip-rule="evenodd" fill="#CCCBC9" d="M61.347,131.81c0.001-0.02,0.003-0.039,0.003-0.058
					c0-4.441-5.506-8.04-12.295-8.04c-6.79,0-12.294,3.599-12.294,8.04c0,0.019,0.003,0.038,0.003,0.058H61.347z"/>
			</g>
			<g id="XMLID_307_">
				<g id="XMLID_308_">
					<polygon fill="#FFFFFF" points="48.55,122.745 32.704,83.793 45.328,62.716 65.556,57.486 66,59.048 46.363,64.125 
						34.462,83.995 49.997,122.18 					"/>
				</g>
			</g>
			<g id="XMLID_306_">
				<path fill-rule="evenodd" clip-rule="evenodd" fill="#333333" d="M35.737,83.778c0.284,1.062-0.346,2.155-1.408,2.44
					c-1.063,0.284-2.155-0.347-2.439-1.409c-0.284-1.062,0.346-2.154,1.407-2.438C34.36,82.086,35.453,82.717,35.737,83.778z"/>
			</g>
			<g id="XMLID_305_">
				<path fill-rule="evenodd" clip-rule="evenodd" fill="#333333" d="M48.275,63.782c0.285,1.062-0.345,2.154-1.408,2.438
					c-1.063,0.285-2.154-0.345-2.438-1.407c-0.285-1.063,0.346-2.155,1.407-2.44C46.899,62.089,47.991,62.72,48.275,63.782z"/>
			</g>
			<g id="XMLID_303_">
				<path fill-rule="evenodd" clip-rule="evenodd" fill="#333333" d="M68.078,58.403c0.283,1.062-0.347,2.154-1.408,2.438
					c-1.063,0.284-2.155-0.347-2.439-1.408c-0.284-1.062,0.346-2.155,1.408-2.438C66.7,56.71,67.793,57.341,68.078,58.403z"/>
			</g>
			<g id="XMLID_302_">
				<path fill="#FFDB76" d="M77.687,70.93c-0.135-6.671-5.333-12.029-11.716-12.011c-6.384,0.017-11.556,5.401-11.656,12.074
					L77.687,70.93z"/>
			</g>
			<g id="XMLID_301_">
				<path fill-rule="evenodd" clip-rule="evenodd" fill="#333333" d="M50.755,121.792c0.284,1.063-0.347,2.155-1.409,2.439
					c-1.062,0.284-2.154-0.346-2.439-1.408c-0.285-1.062,0.345-2.154,1.408-2.439C49.377,120.1,50.47,120.73,50.755,121.792z"/>
			</g>
			
				<linearGradient id="SVGID_1_" gradientUnits="userSpaceOnUse" x1="3800.4727" y1="71.0771" x2="3800.4727" y2="97.8076" gradientTransform="matrix(-1 0 0 1 3866.4727 0)">
				<stop  offset="0" style="stop-color:#FFFFFF"/>
				<stop  offset="1" style="stop-color:#FFFFFF;stop-opacity:0"/>
			</linearGradient>
			<polygon opacity="0.5" fill="url(#SVGID_1_)" points="83.371,97.808 48.629,97.808 54.314,71.077 77.687,71.077 			"/>
		</g>
		<g id="XMLID_285_">
			<g id="XMLID_294_">
				<g id="XMLID_297_">
					<path fill="#FFFFFF" d="M111.069,126.464c-2.205,0-8.12,0.026-11.093-1.511c-6.545-3.387-14.002,0.635-14.069,5.709h22.732
						L111.069,126.464z"/>
				</g>
			</g>
			<g id="XMLID_289_">
				<g id="XMLID_291_">
					<path fill="#FFFFFF" d="M64.442,126.464c2.205,0,8.121,0.026,11.092-1.511c6.546-3.387,14.003,0.635,14.07,5.709H66.871
						L64.442,126.464z"/>
				</g>
			</g>
			<g id="XMLID_288_">
				<path fill="#FFDB76" d="M109.621,129.862v1.955H89.724c-0.101,0.293-0.376,0.505-0.701,0.505h-2.826
					c-0.325,0-0.601-0.212-0.7-0.505H65.598v-1.955h19.863c-0.003,0.018-0.004,0.04-0.004,0.061c0,0.408,0.332,0.739,0.739,0.739
					h2.826c0.408,0,0.739-0.331,0.739-0.739c0-0.021-0.001-0.042-0.003-0.061H109.621z"/>
			</g>
		</g>
		<g>
			<g id="XMLID_276_">
				<rect x="116.526" y="105.864" fill-rule="evenodd" clip-rule="evenodd" fill="#FFDB76" width="27.499" height="8.185"/>
			</g>
			<g id="XMLID_260_">
				<g>
					<rect x="116.526" y="109.957" fill-rule="evenodd" clip-rule="evenodd" fill="#FFDB76" width="27.499" height="4.092"/>
				</g>
			</g>
			<g>
				<rect x="139.397" y="105.864" fill-rule="evenodd" clip-rule="evenodd" fill="#333333" width="1.027" height="8.185"/>
			</g>
			<g>
				<rect x="134.5" y="105.864" fill-rule="evenodd" clip-rule="evenodd" fill="#333333" width="1.027" height="8.185"/>
			</g>
			<g>
				<rect x="118.403" y="105.864" fill-rule="evenodd" clip-rule="evenodd" fill="#333333" width="1.027" height="8.185"/>
			</g>
			<g>
				<g>
					<path fill-rule="evenodd" clip-rule="evenodd" fill="#333333" d="M137.377,108.58c-0.436,0-0.788-0.353-0.788-0.788
						c0-0.435,0.353-0.787,0.788-0.787c0.435,0,0.787,0.353,0.787,0.787C138.164,108.228,137.812,108.58,137.377,108.58z"/>
				</g>
				<g opacity="0.6">
					<path fill-rule="evenodd" clip-rule="evenodd" fill="#333333" d="M137.377,110.744c-0.436,0-0.788-0.353-0.788-0.787
						c0-0.436,0.353-0.788,0.788-0.788c0.435,0,0.787,0.352,0.787,0.788C138.164,110.392,137.812,110.744,137.377,110.744z"/>
				</g>
				<g opacity="0.2">
					<path fill-rule="evenodd" clip-rule="evenodd" fill="#333333" d="M137.377,112.908c-0.436,0-0.788-0.353-0.788-0.787
						c0-0.436,0.353-0.788,0.788-0.788c0.435,0,0.787,0.352,0.787,0.788C138.164,112.556,137.812,112.908,137.377,112.908z"/>
				</g>
			</g>
		</g>
		<g>
			<g id="XMLID_258_">
				
					<rect x="128.071" y="118.426" transform="matrix(0.0042 1 -1 0.0042 259.4258 -1.1213)" fill-rule="evenodd" clip-rule="evenodd" fill="#FFFFFF" width="4.409" height="22.543"/>
			</g>
			<g id="XMLID_256_">
				<g>
					
						<rect x="119.009" y="129.697" transform="matrix(1 -0.004 0.004 1 -0.5212 0.5212)" fill-rule="evenodd" clip-rule="evenodd" fill="#FFDB76" width="22.543" height="2.205"/>
				</g>
			</g>
			<g>
				
					<rect x="138.42" y="127.456" transform="matrix(1 -0.0042 0.0042 1 -0.5425 0.5829)" fill-rule="evenodd" clip-rule="evenodd" fill="#ADEBF6" width="0.659" height="4.41"/>
			</g>
			<g>
				<polygon fill-rule="evenodd" clip-rule="evenodd" fill="#ADEBF6" points="134.912,131.882 134.894,127.474 135.552,127.47 
					135.571,131.88 				"/>
			</g>
			<g>
				
					<rect x="136.076" y="128.789" transform="matrix(0.7038 -0.7104 0.7104 0.7038 -51.5501 135.7074)" fill-rule="evenodd" clip-rule="evenodd" fill="#ADEBF6" width="1.759" height="1.759"/>
			</g>
			<g>
				
					<rect x="136.553" y="129.266" transform="matrix(0.7041 -0.7101 0.7101 0.7041 -51.5528 135.631)" fill-rule="evenodd" clip-rule="evenodd" fill="#333333" width="0.804" height="0.806"/>
			</g>
		</g>
		<g>
			<g id="XMLID_255_">
				
					<rect x="127.311" y="109.436" transform="matrix(0.0021 -1 1 0.0021 5.4019 254.6044)" fill-rule="evenodd" clip-rule="evenodd" fill="#ADEBF6" width="5.93" height="30.319"/>
			</g>
			<g>
				<g>
					<polygon fill-rule="evenodd" clip-rule="evenodd" fill="#ADEBF6" points="145.429,127.595 145.435,125.179 115.116,125.003 
						115.11,127.526 					"/>
				</g>
			</g>
			<g>
				
					<rect x="138.708" y="124.179" transform="matrix(0.0023 -1 1 0.0023 16.7246 266.0064)" fill-rule="evenodd" clip-rule="evenodd" fill="#FFDB76" width="5.931" height="0.885"/>
			</g>
			<g>
				
					<rect x="135.644" y="124.168" transform="matrix(0.0025 -1 1 0.0025 13.6558 262.9104)" fill-rule="evenodd" clip-rule="evenodd" fill="#FFDB76" width="5.931" height="0.885"/>
			</g>
			<g>
				
					<rect x="134.677" y="124.078" transform="matrix(0.7089 -0.7053 0.7053 0.7089 -48.5329 131.6563)" fill-rule="evenodd" clip-rule="evenodd" fill="#333333" width="1.082" height="1.082"/>
			</g>
			<g>
				
					<rect x="132.846" y="124.047" transform="matrix(0.7094 -0.7048 0.7048 0.7094 -49.0478 130.2268)" fill-rule="evenodd" clip-rule="evenodd" fill="#333333" width="1.083" height="1.083"/>
			</g>
		</g>
		<g>
			<g id="XMLID_254_">
				
					<rect x="127.311" y="87.729" transform="matrix(9.966058e-04 -1 1 9.966058e-04 27.2577 233.0622)" fill-rule="evenodd" clip-rule="evenodd" fill="#B2B2B2" width="5.931" height="30.32"/>
			</g>
			<g>
				<polygon fill-rule="evenodd" clip-rule="evenodd" fill="#B2B2B2" points="145.433,105.872 145.435,103.456 115.116,103.312 
					115.113,105.836 				"/>
			</g>
			<g>
				
					<rect x="138.708" y="102.459" transform="matrix(0.0013 -1 1 0.0013 38.5849 244.4395)" fill-rule="evenodd" clip-rule="evenodd" fill="#ADEBF6" width="5.93" height="0.885"/>
			</g>
			<g>
				
					<rect x="135.644" y="102.452" transform="matrix(0.0013 -1 1 0.0013 35.53 241.367)" fill-rule="evenodd" clip-rule="evenodd" fill="#ADEBF6" width="5.93" height="0.885"/>
			</g>
			<g>
				
					<rect x="134.677" y="102.366" transform="matrix(0.708 -0.7062 0.7062 0.708 -33.1917 125.5329)" fill-rule="evenodd" clip-rule="evenodd" fill="#333333" width="1.082" height="1.082"/>
			</g>
			<g>
				
					<rect x="132.846" y="102.337" transform="matrix(0.708 -0.7062 0.7062 0.708 -33.704 124.2436)" fill-rule="evenodd" clip-rule="evenodd" fill="#333333" width="1.082" height="1.082"/>
			</g>
		</g>
		<g>
			<g id="XMLID_252_">
				
					<rect x="126.5" y="104.746" transform="matrix(-1.836970e-16 1 -1 -1.836970e-16 248.1392 -12.4136)" fill-rule="evenodd" clip-rule="evenodd" fill="#E0E0E0" width="7.554" height="26.234"/>
			</g>
			<g id="XMLID_251_">
				
					<rect x="128.426" y="106.672" transform="matrix(-1.836970e-16 1 -1 -1.836970e-16 250.0654 -10.4873)" fill-rule="evenodd" clip-rule="evenodd" fill="#B2B2B2" width="3.701" height="26.234"/>
			</g>
			<g id="XMLID_250_">
				<rect x="132.43" y="114.086" fill-rule="evenodd" clip-rule="evenodd" fill="#FFDB76" width="7.575" height="7.554"/>
			</g>
			<g>
				<g>
					<path fill-rule="evenodd" clip-rule="evenodd" fill="#333333" d="M133.867,116.485c-0.436,0-0.788-0.353-0.788-0.787
						c0-0.436,0.352-0.787,0.788-0.787c0.435,0,0.787,0.352,0.787,0.787C134.654,116.133,134.302,116.485,133.867,116.485z"/>
				</g>
				<g opacity="0.6">
					<path fill-rule="evenodd" clip-rule="evenodd" fill="#333333" d="M133.867,118.65c-0.436,0-0.788-0.353-0.788-0.787
						c0-0.436,0.352-0.788,0.788-0.788c0.435,0,0.787,0.353,0.787,0.788C134.654,118.298,134.302,118.65,133.867,118.65z"/>
				</g>
				<g opacity="0.2">
					<path fill-rule="evenodd" clip-rule="evenodd" fill="#333333" d="M133.867,120.815c-0.436,0-0.788-0.353-0.788-0.788
						c0-0.435,0.352-0.787,0.788-0.787c0.435,0,0.787,0.353,0.787,0.787C134.654,120.463,134.302,120.815,133.867,120.815z"/>
				</g>
			</g>
			<g id="XMLID_249_">
				
					<rect x="136.17" y="117.503" transform="matrix(-1.836970e-16 1 -1 -1.836970e-16 257.1685 -21.4428)" fill-rule="evenodd" clip-rule="evenodd" fill="#FFFFFF" width="6.271" height="0.719"/>
			</g>
			<g id="XMLID_248_">
				
					<rect x="135.828" y="117.504" transform="matrix(-1.836970e-16 1 -1 -1.836970e-16 255.8721 -20.1455)" fill-rule="evenodd" clip-rule="evenodd" fill="#FFFFFF" width="4.361" height="0.719"/>
			</g>
		</g>
		<g>
			<g>
				<rect x="123.854" y="67.265" fill-rule="evenodd" clip-rule="evenodd" fill="#B2B2B2" width="22.911" height="22.913"/>
			</g>
			<g>
				<polygon fill-rule="evenodd" clip-rule="evenodd" fill="#B2B2B2" points="125.627,88.403 123.854,90.178 123.854,67.265 
					125.627,69.039 				"/>
			</g>
			<g>
				<polygon fill-rule="evenodd" clip-rule="evenodd" fill="#B2B2B2" points="144.991,69.039 146.765,67.265 146.765,90.178 
					144.991,88.403 				"/>
			</g>
			<g>
				<rect x="125.608" y="69.058" fill-rule="evenodd" clip-rule="evenodd" fill="#FFFFFF" width="19.364" height="19.364"/>
			</g>
			<g>
				<g>
					<path fill="#FFDB76" d="M140.564,73.49c0,1.431-1.16,2.589-2.589,2.589c-1.43,0-2.589-1.158-2.589-2.589
						c0-1.43,1.159-2.589,2.589-2.589C139.404,70.901,140.564,72.061,140.564,73.49z"/>
				</g>
				<g>
					<polygon fill="#ADEBF6" points="139.465,77.708 129.007,77.708 134.236,72.48 					"/>
				</g>
				<g>
					<rect x="136.239" y="77.032" fill="#FF916E" width="5.764" height="5.764"/>
				</g>
				<g>
					<rect x="132.458" y="83.258" fill="#FF916E" width="3.32" height="3.319"/>
				</g>
				<g>
					<rect x="128.576" y="79.377" fill="#FF916E" width="3.321" height="3.32"/>
				</g>
			</g>
		</g>
		<g>
			<g id="XMLID_247_">
				<rect x="81.792" y="67.088" fill-rule="evenodd" clip-rule="evenodd" fill="#333333" width="38.889" height="1.83"/>
			</g>
			<g>
				<g id="XMLID_246_">
					<rect x="90.25" y="47.648" fill-rule="evenodd" clip-rule="evenodd" fill="#FFDB76" width="5.786" height="19.44"/>
				</g>
				<g id="XMLID_245_">
					<g>
						<rect x="93.144" y="47.648" fill-rule="evenodd" clip-rule="evenodd" fill="#FFDB76" width="2.893" height="19.44"/>
					</g>
				</g>
				<g>
					<rect x="90.25" y="50.194" fill-rule="evenodd" clip-rule="evenodd" fill="#333333" width="5.786" height="0.727"/>
				</g>
				<g>
					<rect x="90.25" y="53.656" fill-rule="evenodd" clip-rule="evenodd" fill="#333333" width="5.786" height="0.727"/>
				</g>
				<g>
					<rect x="90.25" y="65.036" fill-rule="evenodd" clip-rule="evenodd" fill="#333333" width="5.786" height="0.726"/>
				</g>
				<g>
					<g>
						<path fill-rule="evenodd" clip-rule="evenodd" fill="#333333" d="M92.17,52.35c0,0.308-0.25,0.556-0.558,0.556
							c-0.308,0-0.557-0.248-0.557-0.556c0-0.308,0.249-0.557,0.557-0.557C91.92,51.793,92.17,52.042,92.17,52.35z"/>
					</g>
					<g opacity="0.6">
						<path fill-rule="evenodd" clip-rule="evenodd" fill="#333333" d="M93.699,52.35c0,0.308-0.248,0.556-0.556,0.556
							c-0.308,0-0.558-0.248-0.558-0.556c0-0.308,0.25-0.557,0.558-0.557C93.451,51.793,93.699,52.042,93.699,52.35z"/>
					</g>
					<g opacity="0.2">
						<path fill-rule="evenodd" clip-rule="evenodd" fill="#333333" d="M95.229,52.35c0,0.308-0.248,0.556-0.556,0.556
							s-0.557-0.248-0.557-0.556c0-0.308,0.249-0.557,0.557-0.557S95.229,52.042,95.229,52.35z"/>
					</g>
				</g>
			</g>
			<g>
				<g id="XMLID_244_">
					<rect x="111.425" y="40.56" fill-rule="evenodd" clip-rule="evenodd" fill="#FFDB76" width="5.189" height="26.528"/>
				</g>
				<g id="XMLID_242_">
					<g>
						<rect x="114.019" y="40.56" fill-rule="evenodd" clip-rule="evenodd" fill="#FFDB76" width="2.596" height="26.528"/>
					</g>
				</g>
				<g>
					<rect x="111.425" y="43.465" fill-rule="evenodd" clip-rule="evenodd" fill="#FFFFFF" width="5.189" height="0.773"/>
				</g>
				<g>
					<rect x="111.425" y="47.604" fill-rule="evenodd" clip-rule="evenodd" fill="#FFFFFF" width="5.189" height="0.774"/>
				</g>
				<g>
					
						<rect x="112.984" y="44.929" transform="matrix(0.7076 -0.7066 0.7066 0.7076 0.863 94.0127)" fill-rule="evenodd" clip-rule="evenodd" fill="#FFFFFF" width="2.07" height="2.07"/>
				</g>
				<g>
					
						<rect x="113.545" y="45.49" transform="matrix(0.7082 -0.7061 0.7061 0.7082 0.8224 93.917)" fill-rule="evenodd" clip-rule="evenodd" fill="#333333" width="0.947" height="0.947"/>
				</g>
			</g>
			<g>
				<g id="XMLID_239_">
					
						<rect x="84.424" y="40.347" transform="matrix(0.9918 0.1278 -0.1278 0.9918 7.5645 -10.6806)" fill-rule="evenodd" clip-rule="evenodd" fill="#FFFFFF" width="5.189" height="26.529"/>
				</g>
				<g id="XMLID_238_">
					<g>
						
							<rect x="75.04" y="52.48" transform="matrix(0.1277 -0.9918 0.9918 0.1277 23.6941 134.4937)" fill-rule="evenodd" clip-rule="evenodd" fill="#FFDB76" width="26.529" height="2.594"/>
					</g>
				</g>
				<g>
					
						<rect x="87.905" y="41.127" transform="matrix(0.1278 -0.9918 0.9918 0.1278 33.6437 125.6999)" fill-rule="evenodd" clip-rule="evenodd" fill="#ADEBF6" width="0.775" height="5.188"/>
				</g>
				<g>
					
						<rect x="87.376" y="45.232" transform="matrix(0.1278 -0.9918 0.9918 0.1278 29.1133 128.7593)" fill-rule="evenodd" clip-rule="evenodd" fill="#ADEBF6" width="0.775" height="5.19"/>
				</g>
				<g>
					
						<rect x="86.987" y="44.781" transform="matrix(0.7914 -0.6112 0.6112 0.7914 -9.6473 63.359)" fill-rule="evenodd" clip-rule="evenodd" fill="#ADEBF6" width="2.071" height="2.071"/>
				</g>
				<g>
					
						<rect x="87.549" y="45.343" transform="matrix(0.792 -0.6105 0.6105 0.792 -9.6639 63.2657)" fill-rule="evenodd" clip-rule="evenodd" fill="#333333" width="0.947" height="0.947"/>
				</g>
			</g>
			<g>
				<g id="XMLID_237_">
					<rect x="96.021" y="45.498" fill-rule="evenodd" clip-rule="evenodd" fill="#ADEBF6" width="6.772" height="21.59"/>
				</g>
				<g id="XMLID_235_">
					<g>
						<rect x="99.475" y="45.498" fill-rule="evenodd" clip-rule="evenodd" fill="#ADEBF6" width="3.318" height="21.59"/>
					</g>
				</g>
				<g id="XMLID_234_">
					<rect x="96.021" y="61.38" fill-rule="evenodd" clip-rule="evenodd" fill="#FF916E" width="6.772" height="3.284"/>
				</g>
				<g id="XMLID_233_">
					<rect x="96.597" y="61.659" fill-rule="evenodd" clip-rule="evenodd" fill="#FFFFFF" width="5.62" height="0.592"/>
				</g>
				<g id="XMLID_232_">
					<rect x="97.452" y="62.726" fill-rule="evenodd" clip-rule="evenodd" fill="#FFFFFF" width="3.908" height="0.593"/>
				</g>
			</g>
			<g>
				<g id="XMLID_231_">
					
						<rect x="103.005" y="46.251" transform="matrix(0.9402 0.3405 -0.3405 0.9402 25.5375 -32.8048)" fill-rule="evenodd" clip-rule="evenodd" fill="#E0E0E0" width="6.453" height="20.209"/>
				</g>
				<g id="XMLID_230_">
					
						<rect x="104.434" y="50.894" transform="matrix(0.94 0.3411 -0.3411 0.94 25.3266 -32.4444)" fill-rule="evenodd" clip-rule="evenodd" fill="#FFFFFF" width="0.982" height="9.807"/>
				</g>
				<g id="XMLID_229_">
					
						<rect x="105.91" y="53.142" transform="matrix(0.94 0.3411 -0.3411 0.94 25.6082 -32.9176)" fill-rule="evenodd" clip-rule="evenodd" fill="#FFFFFF" width="0.982" height="6.425"/>
				</g>
				<g id="XMLID_228_">
					
						<rect x="100.235" y="62.035" transform="matrix(0.9402 0.3405 -0.3405 0.9402 27.9765 -31.4046)" fill-rule="evenodd" clip-rule="evenodd" fill="#E0E0E0" width="6.453" height="3.938"/>
				</g>
				<g id="XMLID_227_">
					
						<rect x="105.775" y="46.737" transform="matrix(0.9402 0.3405 -0.3405 0.9402 23.0971 -34.2041)" fill-rule="evenodd" clip-rule="evenodd" fill="#E0E0E0" width="6.453" height="3.937"/>
				</g>
			</g>
		</g>
	</g>
</g>
</svg>
