<svg xmlns="http://www.w3.org/2000/svg" viewBox="0 0 48 48"><title>16-Digital Learning</title><g id="_16-Digital_Learning" data-name="16-Digital Learning"><rect x="6" y="13" width="2" height="30"/><rect x="40" y="32" width="2" height="11"/><path d="M45,44H3a3,3,0,0,1-3-3V11A3,3,0,0,1,3,8H5v2H3a1,1,0,0,0-1,1V41a1,1,0,0,0,1,1H45a1,1,0,0,0,1-1V27h2V41A3,3,0,0,1,45,44Z"/><path d="M45,48H3a3,3,0,0,1-3-3V40H2v5a1,1,0,0,0,1,1H45a1,1,0,0,0,1-1V41h2v4A3,3,0,0,1,45,48Z"/><path d="M28,18a1,1,0,0,1-.388-.078l-19-8a1,1,0,0,1,0-1.844l19-8a1,1,0,0,1,.776,0l19,8a1,1,0,0,1,0,1.844l-19,8A1,1,0,0,1,28,18ZM11.577,9,28,15.915,44.423,9,28,2.085Z"/><path d="M28,34a1,1,0,0,1-.419-.092l-13-6A1,1,0,0,1,14,27V11h2V26.36L28,31.9,40,26.36V11h2V27a1,1,0,0,1-.581.908l-13,6A1,1,0,0,1,28,34Z"/><path d="M46,23H44a1,1,0,0,1-1-1V16a1,1,0,0,1,1-1h2V9h2V21a1,1,0,0,1-.293.707l-1,1A1,1,0,0,1,46,23Zm-1-2h.586L46,20.586V17H45Z"/><rect x="26" y="8" width="4" height="2"/><rect x="27" y="17" width="2" height="7"/></g></svg>