<?xml version="1.0" encoding="utf-8"?>
<!-- Generator: Adobe Illustrator 24.3.0, SVG Export Plug-In . SVG Version: 6.00 Build 0)  -->
<svg version="1.1" id="Layer_1" xmlns="http://www.w3.org/2000/svg" xmlns:xlink="http://www.w3.org/1999/xlink" x="0px" y="0px"
	 viewBox="0 0 180 180" style="enable-background:new 0 0 180 180;" xml:space="preserve">
<style type="text/css">
	.st0{fill:#FF9975;}
	.st1{fill:#FF916E;}
	.st2{fill-rule:evenodd;clip-rule:evenodd;fill:#FFD55C;}
	.st3{fill-rule:evenodd;clip-rule:evenodd;fill:#45525B;}
	.st4{fill-rule:evenodd;clip-rule:evenodd;fill:#FFF5DC;}
	.st5{fill:#FFFFFF;}
	.st6{fill-rule:evenodd;clip-rule:evenodd;fill:#CFDBE5;}
	.st7{fill-rule:evenodd;clip-rule:evenodd;fill:#FFFFFF;}
	.st8{opacity:0.4;}
	.st9{fill-rule:evenodd;clip-rule:evenodd;fill:#657077;}
	.st10{fill:#303030;}
</style>
<g>
	<g id="XMLID_577_">
		<path class="st0" d="M90,25.4c-35.7,0-64.6,28.9-64.6,64.6c0,35.7,28.9,64.6,64.6,64.6c35.7,0,64.6-28.9,64.6-64.6
			C154.6,54.3,125.7,25.4,90,25.4z"/>
	</g>
	<g>
		<g>
			<path class="st1" d="M145.2,92.5h-23.2c-2.1,0-3.8,1.7-3.8,3.8c0,2.1,1.7,3.8,3.8,3.8h23.2c2.1,0,3.8-1.7,3.8-3.8
				C149,94.2,147.3,92.5,145.2,92.5z"/>
		</g>
		<g>
			<path class="st1" d="M144.2,77.6h-21.6c-2.1,0-3.8,1.7-3.8,3.8c0,2.1,1.7,3.8,3.8,3.8h21.6c2.1,0,3.8-1.7,3.8-3.8
				C148.1,79.3,146.4,77.6,144.2,77.6z"/>
		</g>
		<g>
			<path class="st1" d="M113.9,77.6h-5.6c-2.1,0-3.8,1.7-3.8,3.8c0,2.1,1.7,3.8,3.8,3.8h5.6c2.1,0,3.8-1.7,3.8-3.8
				C117.7,79.3,116,77.6,113.9,77.6z"/>
		</g>
		<g>
			<path class="st1" d="M144.8,85h-18.5c1.9,0,3.4,1.5,3.4,3.4v0.9c0,1.9-1.5,3.4-3.4,3.4h18.5c-1.9,0-3.4-1.5-3.4-3.4v-0.9
				C141.4,86.6,142.9,85,144.8,85z"/>
		</g>
	</g>
	<g>
		<g>
			<path class="st1" d="M66.6,92.9h-27c-2.4,0-4.4,2-4.4,4.4c0,2.4,2,4.4,4.4,4.4h27c2.4,0,4.4-2,4.4-4.4
				C71.1,94.9,69.1,92.9,66.6,92.9z"/>
		</g>
		<g>
			<path class="st1" d="M65.6,75.6H40.5c-2.4,0-4.4,2-4.4,4.4c0,2.4,2,4.4,4.4,4.4h25.1c2.4,0,4.4-2,4.4-4.4
				C70,77.6,68,75.6,65.6,75.6z"/>
		</g>
		<g>
			<path class="st1" d="M66.2,84.2H44.7c2.2,0,3.9,1.8,3.9,3.9v1c0,2.2-1.8,3.9-3.9,3.9h21.5c-2.2,0-3.9-1.8-3.9-3.9v-1
				C62.2,86,64,84.2,66.2,84.2z"/>
		</g>
	</g>
	<g id="XMLID_504_">
		<g id="XMLID_576_">
			<rect x="42.8" y="76.3" class="st2" width="89.5" height="10.6"/>
		</g>
		<g id="XMLID_575_">
			<g>
				<rect x="42.8" y="76.3" class="st2" width="89.5" height="3.7"/>
			</g>
		</g>
		<g id="XMLID_574_">
			
				<rect x="42.5" y="77.1" transform="matrix(1.460705e-03 -1 1 1.460705e-03 -33.821 120.9197)" class="st3" width="2.3" height="0.7"/>
		</g>
		<g id="XMLID_573_">
			
				<rect x="44.5" y="77.1" transform="matrix(1.314635e-03 -1 1 1.314635e-03 -31.8458 122.9063)" class="st3" width="2.3" height="0.7"/>
		</g>
		<g id="XMLID_571_">
			
				<rect x="45.7" y="77.8" transform="matrix(1.460705e-03 -1 1 1.460705e-03 -30.5882 125.5722)" class="st3" width="3.7" height="0.7"/>
		</g>
		<g id="XMLID_569_">
			
				<rect x="48.4" y="77.1" transform="matrix(1.314827e-03 -1 1 1.314827e-03 -27.8679 126.8958)" class="st3" width="2.3" height="0.7"/>
		</g>
		<g id="XMLID_568_">
			
				<rect x="50.4" y="77.1" transform="matrix(1.460705e-03 -1 1 1.460705e-03 -25.9068 128.86)" class="st3" width="2.3" height="0.7"/>
		</g>
		<g id="XMLID_567_">
			<rect x="53.2" y="76.2" class="st3" width="0.7" height="3.7"/>
		</g>
		<g id="XMLID_566_">
			<rect x="55.2" y="76.2" class="st3" width="0.7" height="2.3"/>
		</g>
		<g id="XMLID_565_">
			<rect x="57.2" y="76.3" class="st3" width="0.7" height="2.3"/>
		</g>
		<g id="XMLID_564_">
			
				<rect x="57.6" y="77.8" transform="matrix(1.316558e-03 -1 1 1.316558e-03 -18.6886 137.5128)" class="st3" width="3.7" height="0.7"/>
		</g>
		<g id="XMLID_561_">
			
				<rect x="60.4" y="77.1" transform="matrix(1.462842e-03 -1 1 1.462842e-03 -15.9852 138.8142)" class="st3" width="2.3" height="0.7"/>
		</g>
		<g id="XMLID_559_">
			<rect x="63.1" y="76.3" class="st3" width="0.7" height="2.3"/>
		</g>
		<g id="XMLID_558_">
			
				<rect x="63.6" y="77.8" transform="matrix(1.462842e-03 -1 1 1.462842e-03 -12.7524 143.4667)" class="st3" width="3.7" height="0.7"/>
		</g>
		<g id="XMLID_556_">
			<rect x="67.1" y="76.3" class="st3" width="0.7" height="2.3"/>
		</g>
		<g id="XMLID_555_">
			
				<rect x="68.3" y="77.1" transform="matrix(1.462842e-03 -1 1 1.462842e-03 -8.0712 146.7543)" class="st3" width="2.3" height="0.7"/>
		</g>
		<g id="XMLID_554_">
			<rect x="71.1" y="76.3" class="st3" width="0.7" height="3.7"/>
		</g>
		<g id="XMLID_553_">
			<rect x="71.1" y="76.3" class="st3" width="0.7" height="3.7"/>
		</g>
		<g id="XMLID_552_">
			
				<rect x="72.3" y="77.1" transform="matrix(1.460919e-03 -1 1 1.460919e-03 -4.0947 150.7445)" class="st3" width="2.3" height="0.7"/>
		</g>
		<g id="XMLID_551_">
			<rect x="75.1" y="76.3" class="st3" width="0.7" height="2.3"/>
		</g>
		<g id="XMLID_550_">
			
				<rect x="75.5" y="77.8" transform="matrix(1.314827e-03 -1 1 1.314827e-03 -0.8504 155.4087)" class="st3" width="3.7" height="0.7"/>
		</g>
		<g id="XMLID_549_">
			
				<rect x="75.5" y="77.8" transform="matrix(1.314827e-03 -1 1 1.314827e-03 -0.8504 155.4087)" class="st3" width="3.7" height="0.7"/>
		</g>
		<g id="XMLID_548_">
			
				<rect x="78.2" y="77.1" transform="matrix(1.462842e-03 -1 1 1.462842e-03 1.8507 156.7089)" class="st3" width="2.3" height="0.7"/>
		</g>
		<g id="XMLID_547_">
			
				<rect x="80.2" y="77.1" transform="matrix(1.316558e-03 -1 1 1.316558e-03 3.8307 158.6951)" class="st3" width="2.3" height="0.7"/>
		</g>
		<g id="XMLID_546_">
			
				<rect x="81.5" y="77.8" transform="matrix(1.314635e-03 -1 1 1.314635e-03 5.0961 161.3723)" class="st3" width="3.7" height="0.7"/>
		</g>
		<g id="XMLID_545_">
			
				<rect x="81.5" y="77.8" transform="matrix(1.314635e-03 -1 1 1.314635e-03 5.0961 161.3723)" class="st3" width="3.7" height="0.7"/>
		</g>
		<g id="XMLID_544_">
			<rect x="85" y="76.3" class="st3" width="0.7" height="2.3"/>
		</g>
		<g id="XMLID_542_">
			
				<rect x="86.2" y="77.1" transform="matrix(1.460705e-03 -1 1 1.460705e-03 9.7646 164.6485)" class="st3" width="2.3" height="0.7"/>
		</g>
		<g id="XMLID_541_">
			<rect x="89" y="76.3" class="st3" width="0.7" height="3.7"/>
		</g>
		<g id="XMLID_540_">
			<rect x="89" y="76.3" class="st3" width="0.7" height="3.7"/>
		</g>
		<g id="XMLID_539_">
			
				<rect x="90.2" y="77.1" transform="matrix(1.460705e-03 -1 1 1.460705e-03 13.7413 168.6382)" class="st3" width="2.3" height="0.7"/>
		</g>
		<g id="XMLID_538_">
			<rect x="92.9" y="76.3" class="st3" width="0.7" height="2.3"/>
		</g>
		<g id="XMLID_536_">
			
				<rect x="93.4" y="77.8" transform="matrix(1.458575e-03 -1 1 1.458575e-03 16.9744 173.2917)" class="st3" width="3.7" height="0.7"/>
		</g>
		<g id="XMLID_535_">
			
				<rect x="93.4" y="77.8" transform="matrix(1.458575e-03 -1 1 1.458575e-03 16.9744 173.2917)" class="st3" width="3.7" height="0.7"/>
		</g>
		<g id="XMLID_534_">
			
				<rect x="96.1" y="77.1" transform="matrix(1.460919e-03 -1 1 1.460919e-03 19.6866 174.6036)" class="st3" width="2.3" height="0.7"/>
		</g>
		<g id="XMLID_533_">
			
				<rect x="98.1" y="77.1" transform="matrix(1.316558e-03 -1 1 1.316558e-03 21.6695 176.5906)" class="st3" width="2.3" height="0.7"/>
		</g>
		<g id="XMLID_532_">
			
				<rect x="99.4" y="77.8" transform="matrix(1.460919e-03 -1 1 1.460919e-03 22.9194 179.2561)" class="st3" width="3.7" height="0.7"/>
		</g>
		<g id="XMLID_531_">
			
				<rect x="99.4" y="77.8" transform="matrix(1.460919e-03 -1 1 1.460919e-03 22.9194 179.2561)" class="st3" width="3.7" height="0.7"/>
		</g>
		<g id="XMLID_530_">
			<rect x="102.9" y="76.3" class="st3" width="0.7" height="2.3"/>
		</g>
		<g id="XMLID_528_">
			
				<rect x="104" y="77.1" transform="matrix(1.462842e-03 -1 1 1.462842e-03 27.6003 182.5435)" class="st3" width="2.3" height="0.7"/>
		</g>
		<g id="XMLID_527_">
			<rect x="106.8" y="76.3" class="st3" width="0.7" height="3.7"/>
		</g>
		<g id="XMLID_526_">
			<rect x="106.8" y="76.3" class="st3" width="0.7" height="3.7"/>
		</g>
		<g id="XMLID_525_">
			<rect x="108.8" y="76.3" class="st3" width="0.7" height="2.3"/>
		</g>
		<g id="XMLID_524_">
			
				<rect x="110" y="77.1" transform="matrix(1.458788e-03 -1 1 1.458788e-03 33.5459 188.508)" class="st3" width="2.3" height="0.7"/>
		</g>
		<g id="XMLID_523_">
			
				<rect x="111.3" y="77.8" transform="matrix(2.925675e-03 -1 1 2.925675e-03 34.6442 191.0704)" class="st3" width="3.7" height="0.7"/>
		</g>
		<g id="XMLID_521_">
			
				<rect x="111.3" y="77.8" transform="matrix(2.925675e-03 -1 1 2.925675e-03 34.6442 191.0704)" class="st3" width="3.7" height="0.7"/>
		</g>
		<g id="XMLID_520_">
			
				<rect x="114" y="77.1" transform="matrix(1.460705e-03 -1 1 1.460705e-03 37.5221 192.4973)" class="st3" width="2.3" height="0.7"/>
		</g>
		<g id="XMLID_519_">
			
				<rect x="116" y="77.1" transform="matrix(1.460705e-03 -1 1 1.460705e-03 39.4908 194.4734)" class="st3" width="2.3" height="0.7"/>
		</g>
		<g id="XMLID_518_">
			<polygon class="st3" points="118.8,80 119.4,80 119.4,76.3 118.8,76.3 			"/>
		</g>
		<g id="XMLID_517_">
			<polygon class="st3" points="118.8,80 119.4,80 119.4,76.3 118.8,76.3 			"/>
		</g>
		<g id="XMLID_516_">
			<rect x="120.8" y="76.3" class="st3" width="0.7" height="2.3"/>
		</g>
		<g id="XMLID_515_">
			
				<rect x="121.9" y="77.1" transform="matrix(1.458788e-03 -1 1 1.458788e-03 45.4363 200.4386)" class="st3" width="2.3" height="0.7"/>
		</g>
		<g id="XMLID_514_">
			
				<rect x="123.2" y="77.8" transform="matrix(1.462842e-03 -1 1 1.462842e-03 46.6992 203.1148)" class="st3" width="3.7" height="0.7"/>
		</g>
		<g id="XMLID_513_">
			
				<rect x="123.2" y="77.8" transform="matrix(1.462842e-03 -1 1 1.462842e-03 46.6992 203.1148)" class="st3" width="3.7" height="0.7"/>
		</g>
		<g id="XMLID_512_">
			
				<rect x="125.9" y="77.1" transform="matrix(1.460705e-03 -1 1 1.460705e-03 49.4129 204.4279)" class="st3" width="2.3" height="0.7"/>
		</g>
		<g id="XMLID_510_">
			<rect x="128.7" y="76.3" class="st3" width="0.7" height="2.3"/>
		</g>
		<g id="XMLID_506_">
			
				<rect x="129.2" y="77.8" transform="matrix(1.460705e-03 -1 1 1.460705e-03 52.6448 209.0798)" class="st3" width="3.7" height="0.7"/>
		</g>
	</g>
	<g id="XMLID_498_">
		<g>
			<polygon class="st2" points="46.8,98.3 133.6,98.3 133.6,91.6 46.8,91.6 			"/>
		</g>
		<g>
			<g>
				<rect x="46.8" y="93.8" class="st2" width="86.8" height="2.4"/>
			</g>
		</g>
		<g id="XMLID_499_">
			<g id="XMLID_503_">
				<path class="st4" d="M46.9,96.1c0.3-0.1,0.5-0.5,0.5-1.1c0-0.6-0.2-1-0.5-1.1c0.3-0.1,0.5-0.5,0.5-1.1c0-0.6-0.3-1.1-0.6-1.1
					c-0.1,0-5.4,3.4-5.4,3.4s5.3,3.3,5.4,3.3c0.3,0,0.6-0.5,0.6-1.1C47.4,96.6,47.2,96.2,46.9,96.1z"/>
			</g>
			<g id="XMLID_500_">
				<polygon class="st3" points="41.4,95 44,96.6 44,93.4 				"/>
			</g>
		</g>
	</g>
	<g>
		<g>
			<path class="st5" d="M146.3,113.9h-10.2c-0.2,0-0.4,0.2-0.4,0.4c0,0.2,0.2,0.4,0.4,0.4h10.2c0.2,0,0.4-0.2,0.4-0.4
				C146.6,114.1,146.5,113.9,146.3,113.9z"/>
		</g>
		<g>
			<path class="st5" d="M134.2,117.4h-1.6c-0.2,0-0.4,0.2-0.4,0.4c0,0.2,0.2,0.4,0.4,0.4h1.6c0.2,0,0.4-0.2,0.4-0.4
				C134.5,117.5,134.4,117.4,134.2,117.4z"/>
		</g>
		<g>
			<path class="st5" d="M132.2,109.4h-1.6c-0.2,0-0.4,0.2-0.4,0.4c0,0.2,0.2,0.4,0.4,0.4h1.6c0.2,0,0.4-0.2,0.4-0.4
				C132.6,109.5,132.4,109.4,132.2,109.4z"/>
		</g>
		<g>
			<path class="st5" d="M142.3,117.4h-6.2c-0.2,0-0.4,0.2-0.4,0.4c0,0.2,0.2,0.4,0.4,0.4h6.2c0.2,0,0.4-0.2,0.4-0.4
				C142.7,117.5,142.5,117.4,142.3,117.4z"/>
		</g>
		<g>
			<path class="st5" d="M134.3,120.9h-7.5c-0.2,0-0.4,0.2-0.4,0.4c0,0.2,0.2,0.4,0.4,0.4h7.5c0.2,0,0.4-0.2,0.4-0.4
				C134.7,121.1,134.5,120.9,134.3,120.9z"/>
		</g>
	</g>
	<g>
		<g>
			<path class="st5" d="M139.1,106.9h-3.9c-0.2,0-0.4,0.2-0.4,0.4s0.2,0.4,0.4,0.4h3.9c0.2,0,0.4-0.2,0.4-0.4
				S139.4,106.9,139.1,106.9z"/>
		</g>
		<g>
			<path class="st5" d="M137.1,105c-0.2,0-0.4,0.2-0.4,0.4v3.8c0,0.2,0.2,0.4,0.4,0.4s0.4-0.2,0.4-0.4v-3.8
				C137.5,105.1,137.3,105,137.1,105z"/>
		</g>
	</g>
	<g>
		<g>
			<path class="st5" d="M50.4,122.9h-3.9c-0.2,0-0.4,0.2-0.4,0.4c0,0.2,0.2,0.4,0.4,0.4h3.9c0.2,0,0.4-0.2,0.4-0.4
				C50.8,123,50.6,122.9,50.4,122.9z"/>
		</g>
		<g>
			<path class="st5" d="M48.4,120.9c-0.2,0-0.4,0.2-0.4,0.4v3.8c0,0.2,0.2,0.4,0.4,0.4c0.2,0,0.4-0.2,0.4-0.4v-3.8
				C48.8,121.1,48.6,120.9,48.4,120.9z"/>
		</g>
	</g>
	<g>
		<g>
			<path class="st5" d="M142.1,63.2H133c-0.2,0-0.4,0.2-0.4,0.4s0.2,0.4,0.4,0.4h9.1c0.2,0,0.4-0.2,0.4-0.4S142.3,63.2,142.1,63.2z"
				/>
		</g>
		<g>
			<path class="st5" d="M131.3,66.3h-1.5c-0.2,0-0.4,0.2-0.4,0.4s0.2,0.4,0.4,0.4h1.5c0.2,0,0.4-0.2,0.4-0.4S131.5,66.3,131.3,66.3z
				"/>
		</g>
		<g>
			<path class="st5" d="M129.5,59.2H128c-0.2,0-0.4,0.2-0.4,0.4c0,0.2,0.2,0.4,0.4,0.4h1.5c0.2,0,0.4-0.2,0.4-0.4
				C129.9,59.3,129.7,59.2,129.5,59.2z"/>
		</g>
		<g>
			<path class="st5" d="M138.5,66.3H133c-0.2,0-0.4,0.2-0.4,0.4s0.2,0.4,0.4,0.4h5.6c0.2,0,0.4-0.2,0.4-0.4S138.7,66.3,138.5,66.3z"
				/>
		</g>
		<g>
			<path class="st5" d="M131.4,69.5h-6.7c-0.2,0-0.4,0.2-0.4,0.4c0,0.2,0.2,0.4,0.4,0.4h6.7c0.2,0,0.4-0.2,0.4-0.4
				C131.8,69.7,131.6,69.5,131.4,69.5z"/>
		</g>
	</g>
	<g>
		<g>
			<path class="st5" d="M44.9,111.8H34.7c-0.2,0-0.4,0.2-0.4,0.4c0,0.2,0.2,0.4,0.4,0.4h10.2c0.2,0,0.4-0.2,0.4-0.4
				C45.3,111.9,45.1,111.8,44.9,111.8z"/>
		</g>
		<g>
			<path class="st5" d="M48.5,108h-1.6c-0.2,0-0.4,0.2-0.4,0.4c0,0.2,0.2,0.4,0.4,0.4h1.6c0.2,0,0.4-0.2,0.4-0.4
				C48.8,108.2,48.7,108,48.5,108z"/>
		</g>
		<g>
			<path class="st5" d="M47.6,113.2H46c-0.2,0-0.4,0.2-0.4,0.4c0,0.2,0.2,0.4,0.4,0.4h1.6c0.2,0,0.4-0.2,0.4-0.4
				C48,113.4,47.8,113.2,47.6,113.2z"/>
		</g>
		<g>
			<path class="st5" d="M44.9,108h-6.2c-0.2,0-0.4,0.2-0.4,0.4c0,0.2,0.2,0.4,0.4,0.4h6.2c0.2,0,0.4-0.2,0.4-0.4
				C45.3,108.2,45.1,108,44.9,108z"/>
		</g>
		<g>
			<path class="st5" d="M54.2,104.2h-7.5c-0.2,0-0.4,0.2-0.4,0.4c0,0.2,0.2,0.4,0.4,0.4h7.5c0.2,0,0.4-0.2,0.4-0.4
				C54.6,104.3,54.4,104.2,54.2,104.2z"/>
		</g>
		<g>
			<path class="st5" d="M49.4,117.2h-7.5c-0.2,0-0.4,0.2-0.4,0.4c0,0.2,0.2,0.4,0.4,0.4h7.5c0.2,0,0.4-0.2,0.4-0.4
				C49.7,117.4,49.6,117.2,49.4,117.2z"/>
		</g>
	</g>
	<g>
		<g>
			<path class="st5" d="M50.4,62.8H40.2c-0.2,0-0.4,0.2-0.4,0.4c0,0.2,0.2,0.4,0.4,0.4h10.2c0.2,0,0.4-0.2,0.4-0.4
				C50.8,63,50.6,62.8,50.4,62.8z"/>
		</g>
		<g>
			<path class="st5" d="M54,59h-1.6c-0.2,0-0.4,0.2-0.4,0.4c0,0.2,0.2,0.4,0.4,0.4H54c0.2,0,0.4-0.2,0.4-0.4
				C54.3,59.2,54.2,59,54,59z"/>
		</g>
		<g>
			<path class="st5" d="M53.1,64.2h-1.6c-0.2,0-0.4,0.2-0.4,0.4c0,0.2,0.2,0.4,0.4,0.4h1.6c0.2,0,0.4-0.2,0.4-0.4
				C53.5,64.4,53.4,64.2,53.1,64.2z"/>
		</g>
		<g>
			<path class="st5" d="M50.4,59h-6.2c-0.2,0-0.4,0.2-0.4,0.4c0,0.2,0.2,0.4,0.4,0.4h6.2c0.2,0,0.4-0.2,0.4-0.4
				C50.8,59.2,50.6,59,50.4,59z"/>
		</g>
		<g>
			<path class="st5" d="M59.7,55.2h-7.5c-0.2,0-0.4,0.2-0.4,0.4c0,0.2,0.2,0.4,0.4,0.4h7.5c0.2,0,0.4-0.2,0.4-0.4
				C60.1,55.4,59.9,55.2,59.7,55.2z"/>
		</g>
		<g>
			<path class="st5" d="M54.9,68.3h-7.5c-0.2,0-0.4,0.2-0.4,0.4c0,0.2,0.2,0.4,0.4,0.4h7.5c0.2,0,0.4-0.2,0.4-0.4
				C55.2,68.5,55.1,68.3,54.9,68.3z"/>
		</g>
	</g>
	<g>
		<g>
			<path class="st5" d="M135.7,57h-3.5c-0.2,0-0.4,0.2-0.4,0.4c0,0.2,0.2,0.4,0.4,0.4h3.5c0.2,0,0.4-0.2,0.4-0.4
				C136.1,57.1,135.9,57,135.7,57z"/>
		</g>
		<g>
			<path class="st5" d="M133.9,55.2c-0.2,0-0.4,0.2-0.4,0.4V59c0,0.2,0.2,0.4,0.4,0.4c0.2,0,0.4-0.2,0.4-0.4v-3.4
				C134.3,55.4,134.1,55.2,133.9,55.2z"/>
		</g>
	</g>
	<g>
		<g>
			<g id="XMLID_2409_">
				<rect x="77.6" y="139.2" class="st6" width="24.8" height="11.3"/>
			</g>
			<g id="XMLID_2408_">
				<g>
					<rect x="77.6" y="139.2" class="st6" width="24.8" height="5.7"/>
				</g>
			</g>
			<g id="XMLID_2407_">
				<path class="st7" d="M121.5,101.4H58.5c-1.8,0-3.2,1.5-3.2,3.2v34.2c0,1.8,1.4,3.2,3.2,3.2h62.9c1.8,0,3.2-1.4,3.2-3.2v-34.2
					C124.7,102.8,123.2,101.4,121.5,101.4z"/>
			</g>
			<g id="XMLID_2406_">
				<rect x="57.5" y="103.2" class="st6" width="65.1" height="33.1"/>
			</g>
			<g id="XMLID_537_" class="st8">
				<g>
					<polygon class="st6" points="122.5,136.3 122.5,103.2 57.5,136.3 					"/>
				</g>
			</g>
			<g id="XMLID_2389_">
				<path class="st9" d="M116.3,148.2H63.7c-0.6,0-1.2,0.5-1.2,1.2c0,0.6,0.5,1.2,1.2,1.2h52.6c0.6,0,1.2-0.5,1.2-1.2
					C117.4,148.7,116.9,148.2,116.3,148.2z"/>
			</g>
		</g>
	</g>
	<g>
		<g>
			<rect x="61.4" y="46.4" class="st7" width="58.9" height="64.4"/>
		</g>
		<g>
			<g>
				<rect x="101.9" y="90.7" class="st6" width="14.8" height="2.5"/>
			</g>
			<g>
				<rect x="101.9" y="95" class="st6" width="14.8" height="2.5"/>
			</g>
			<g>
				<rect x="101.9" y="99.3" class="st6" width="14.8" height="2.5"/>
			</g>
			<g>
				<rect x="107.3" y="103.6" class="st6" width="9.4" height="2.5"/>
			</g>
		</g>
		<g>
			<g>
				<rect x="83.4" y="90.7" class="st6" width="14.8" height="2.5"/>
			</g>
			<g>
				<rect x="83.4" y="95" class="st6" width="14.8" height="2.5"/>
			</g>
			<g>
				<rect x="83.4" y="99.3" class="st6" width="14.8" height="2.5"/>
			</g>
			<g>
				<rect x="88.9" y="103.6" class="st6" width="9.4" height="2.5"/>
			</g>
		</g>
		<g>
			<rect x="61.4" y="46.4" class="st9" width="58.9" height="3.9"/>
		</g>
		<g>
			<polygon class="st9" points="59.4,70.3 118.2,73.3 120.6,57.6 61.8,54.2 			"/>
		</g>
		<g>
			<g>
				<path class="st10" d="M117,64.5C117,64.5,117,64.4,117,64.5L117,64.5c0-0.1,0-0.1,0-0.1l0,0l0,0l0,0l0,0l0,0l0,0c0,0,0,0,0,0
					l-1.1-1.4c-0.1-0.2-0.4-0.2-0.6-0.1s-0.2,0.4-0.1,0.6l0.9,1.1l-0.9,1.1c-0.1,0.2-0.1,0.4,0.1,0.6s0.5,0.1,0.6-0.1l1.1-1.4
					c0,0,0,0,0,0l0,0l0,0l0,0l0,0l0,0l0,0c0,0,0,0,0,0l0,0c0,0,0,0,0-0.1l0,0C117,64.6,117,64.6,117,64.5L117,64.5L117,64.5
					L117,64.5C117,64.5,117,64.5,117,64.5L117,64.5z"/>
			</g>
			<g>
				<path class="st10" d="M63.9,62.8c-0.2-0.1-0.4-0.1-0.6,0.1l-1.1,1.4c0,0,0,0,0,0l0,0l0,0l0,0l0,0l0,0l0,0c0,0,0,0,0,0l0,0
					c0,0,0,0,0,0.1l0,0c0,0,0,0,0,0v0v0v0c0,0,0,0,0,0l0,0c0,0,0,0,0,0.1l0,0c0,0,0,0,0,0l0,0l0,0l0,0l0,0l0,0l0,0c0,0,0,0,0,0
					l1.1,1.4c0.1,0.2,0.4,0.2,0.6,0.1c0.2-0.1,0.2-0.4,0.1-0.6l-0.9-1.1l0.9-1.1C64.1,63.2,64.1,63,63.9,62.8z"/>
			</g>
		</g>
		<g>
			<rect x="101.9" y="75.6" class="st9" width="14.8" height="13.3"/>
		</g>
		<g>
			<rect x="83.4" y="75.6" class="st2" width="14.8" height="13.3"/>
		</g>
		<g>
			<rect x="64.9" y="75.6" class="st2" width="14.8" height="13.3"/>
		</g>
		<g>
			<rect x="83.4" y="99.3" class="st9" width="14.8" height="2.5"/>
		</g>
		<g>
			<rect x="88.9" y="103.6" class="st9" width="9.4" height="2.5"/>
		</g>
		<g>
			<g>
				<rect x="64.9" y="90.7" class="st6" width="14.8" height="2.5"/>
			</g>
			<g>
				<rect x="64.9" y="95" class="st6" width="14.8" height="2.5"/>
			</g>
			<g>
				<rect x="64.9" y="99.3" class="st6" width="14.8" height="2.5"/>
			</g>
			<g>
				<rect x="70.4" y="103.6" class="st6" width="9.4" height="2.5"/>
			</g>
		</g>
		<g>
			<g>
				<path class="st10" d="M103.5,30.5v0.8c0,0,0,0.1,0,0.1c0.1,0.5,0.8,0.4,0.8-0.1v-0.8c0,0,0-0.1,0-0.1
					C104.2,29.9,103.5,30,103.5,30.5z"/>
			</g>
			<g>
				<path class="st10" d="M103.5,33.8v0.8c0,0,0,0.1,0,0.1c0.1,0.5,0.8,0.4,0.8-0.1v-0.8c0,0,0-0.1,0-0.1
					C104.2,33.2,103.5,33.3,103.5,33.8z"/>
			</g>
			<g>
				<path class="st10" d="M103.5,37.1v0.8c0,0,0,0.1,0,0.1c0.1,0.5,0.8,0.4,0.8-0.1v-0.8c0,0,0-0.1,0-0.1
					C104.2,36.5,103.5,36.6,103.5,37.1z"/>
			</g>
			<g>
				<path class="st10" d="M103.5,40.4v0.8c0,0,0,0.1,0,0.1c0.1,0.5,0.8,0.4,0.8-0.1v-0.8c0,0,0-0.1,0-0.1
					C104.2,39.8,103.5,39.9,103.5,40.4z"/>
			</g>
			<g>
				<path class="st10" d="M103.5,43.7v0.8c0,0,0,0.1,0,0.1c0.1,0.5,0.8,0.4,0.8-0.1v-0.8c0,0,0-0.1,0-0.1
					C104.2,43.1,103.5,43.2,103.5,43.7z"/>
			</g>
			<g>
				<path class="st10" d="M103.5,27.2V28c0,0,0,0.1,0,0.1c0.1,0.5,0.8,0.4,0.8-0.1v-0.8c0,0,0-0.1,0-0.1
					C104.2,26.6,103.5,26.8,103.5,27.2z"/>
			</g>
			<g>
				<path class="st10" d="M103.5,46.6v0.8c0,0,0,0.1,0,0.1c0.1,0.5,0.8,0.4,0.8-0.1v-0.8c0,0,0-0.1,0-0.1
					C104.2,46,103.5,46.1,103.5,46.6z"/>
			</g>
		</g>
		<g>
			<g>
				<path class="st10" d="M77.2,32.6v0.8c0,0,0,0.1,0,0.1c0.1,0.5,0.8,0.4,0.8-0.1v-0.8c0,0,0-0.1,0-0.1
					C77.9,32,77.2,32.1,77.2,32.6z"/>
			</g>
			<g>
				<path class="st10" d="M77.2,35.9v0.8c0,0,0,0.1,0,0.1c0.1,0.5,0.8,0.4,0.8-0.1v-0.8c0,0,0-0.1,0-0.1
					C77.9,35.3,77.2,35.4,77.2,35.9z"/>
			</g>
			<g>
				<path class="st10" d="M77.2,39.2V40c0,0,0,0.1,0,0.1c0.1,0.5,0.8,0.4,0.8-0.1v-0.8c0,0,0-0.1,0-0.1
					C77.9,38.6,77.2,38.7,77.2,39.2z"/>
			</g>
			<g>
				<path class="st10" d="M77.2,42.5v0.8c0,0,0,0.1,0,0.1c0.1,0.5,0.8,0.4,0.8-0.1v-0.8c0,0,0-0.1,0-0.1
					C77.9,41.9,77.2,42,77.2,42.5z"/>
			</g>
		</g>
		<g>
			<g>
				<path class="st10" d="M77.2,25.9v0.8c0,0,0,0.1,0,0.1c0.1,0.5,0.8,0.4,0.8-0.1v-0.8c0,0,0-0.1,0-0.1
					C77.9,25.3,77.2,25.4,77.2,25.9z"/>
			</g>
			<g>
				<path class="st10" d="M77.2,29.1V30c0,0,0,0.1,0,0.1c0.1,0.5,0.8,0.4,0.8-0.1v-0.8c0,0,0-0.1,0-0.1
					C77.9,28.6,77.2,28.7,77.2,29.1z"/>
			</g>
		</g>
		<g>
			<rect x="87" y="35" transform="matrix(0.1913 -0.9815 0.9815 0.1913 25.0065 127.7026)" class="st2" width="6" height="27.4"/>
		</g>
	</g>
</g>
</svg>
