<?xml version="1.0" encoding="utf-8"?>
<!-- Generator: Adobe Illustrator 19.2.0, SVG Export Plug-In . SVG Version: 6.00 Build 0)  -->
<svg version="1.1" id="Layer_1" xmlns="http://www.w3.org/2000/svg" xmlns:xlink="http://www.w3.org/1999/xlink" x="0px" y="0px"
	 viewBox="0 0 500 500" style="enable-background:new 0 0 500 500;" xml:space="preserve">
<style type="text/css">
	.st0{fill:#ECF4F7;}
	.st1{fill:#1C1D21;}
	.st2{fill:#83E1E5;}
	.st3{fill:#AAB1BA;}
	.st4{fill:none;stroke:#1C1D21;stroke-width:10;stroke-linecap:round;stroke-linejoin:round;stroke-miterlimit:10;}
	.st5{fill:#FDDF7F;}
	.st6{fill:#FFFFFF;}
</style>
<g>
	<g>
		<g>
			<path class="st2" d="M40,336v104c0,11,9,20,20,20h380c11,0,20-9,20-20V336H40z"/>
		</g>
	</g>
	<g>
		<g>
			<path class="st2" d="M460,128V62.4c0-11-9-20-20-20H60c-11,0-20,9-20,20V128H460z"/>
		</g>
	</g>
	<g>
		<g>
			<path class="st1" d="M465,500H35c-19.3,0-35-15.7-35-35V35C0,15.7,15.7,0,35,0h430c19.3,0,35,15.7,35,35v430
				C500,484.3,484.3,500,465,500z M35,10c-13.8,0-25,11.2-25,25v430c0,13.8,11.2,25,25,25h430c13.8,0,25-11.2,25-25V35
				c0-13.8-11.2-25-25-25H35z"/>
		</g>
	</g>
	<g>
		<g>
			<g>
				<path class="st1" d="M40,97.7c-2.8,0-5-2.2-5-5V62.4c0-13.8,11.2-25,25-25h4.3c2.8,0,5,2.2,5,5s-2.2,5-5,5H60
					c-8.3,0-15,6.7-15,15v30.3C45,95.4,42.8,97.7,40,97.7z"/>
			</g>
		</g>
		<g>
			<g>
				<path class="st1" d="M104,47.4H89c-2.8,0-5-2.2-5-5s2.2-5,5-5h15c2.8,0,5,2.2,5,5S106.8,47.4,104,47.4z"/>
			</g>
		</g>
	</g>
	<g>
		<g>
			<g>
				<path class="st1" d="M440,465h-4.3c-2.8,0-5-2.2-5-5s2.2-5,5-5h4.3c8.3,0,15-6.7,15-15v-30.3c0-2.8,2.2-5,5-5s5,2.2,5,5V440
					C465,453.8,453.8,465,440,465z"/>
			</g>
		</g>
		<g>
			<g>
				<path class="st1" d="M411,465h-15c-2.8,0-5-2.2-5-5s2.2-5,5-5h15c2.8,0,5,2.2,5,5S413.8,465,411,465z"/>
			</g>
		</g>
	</g>
	<g>
		<g>
			<g>
				<path class="st6" d="M128.3,359.3H79.7c-5.5,0-10,4.5-10,10v33.3c0,5.5,4.5,10,10,10h48.7c5.5,0,10-4.5,10-10v-33.3
					C138.3,363.8,133.9,359.3,128.3,359.3z"/>
			</g>
		</g>
		<g>
			<g>
				<path class="st6" d="M225.7,359.3H177c-5.5,0-10,4.5-10,10v33.3c0,5.5,4.5,10,10,10h48.7c5.5,0,10-4.5,10-10v-33.3
					C235.7,363.8,231.2,359.3,225.7,359.3z"/>
			</g>
		</g>
		<g>
			<g>
				<path class="st6" d="M323,359.3h-48.7c-5.5,0-10,4.5-10,10v33.3c0,5.5,4.5,10,10,10H323c5.5,0,10-4.5,10-10v-33.3
					C333,363.8,328.5,359.3,323,359.3z"/>
			</g>
		</g>
		<g>
			<g>
				<path class="st6" d="M420.3,359.3h-48.7c-5.5,0-10,4.5-10,10v33.3c0,5.5,4.5,10,10,10h48.7c5.5,0,10-4.5,10-10v-33.3
					C430.3,363.8,425.9,359.3,420.3,359.3z"/>
			</g>
		</g>
	</g>
	<g>
		<g>
			<g>
				<path class="st5" d="M245.6,350.7l-75.8,39.9c-7,3.7-15.2-2.3-13.9-10.1l14.5-84.4c0.5-3.1-0.5-6.3-2.7-8.4l-61.3-59.8
					c-5.7-5.5-2.5-15.1,5.3-16.3l84.8-12.3c3.1-0.5,5.8-2.4,7.2-5.2l37.9-76.8c3.5-7.1,13.6-7.1,17.1,0l37.9,76.8
					c1.4,2.8,4.1,4.8,7.2,5.2l84.8,12.3c7.8,1.1,11,10.8,5.3,16.3l-61.3,59.8c-2.2,2.2-3.3,5.4-2.7,8.4l14.5,84.4
					c1.3,7.8-6.8,13.7-13.9,10.1l-75.8-39.9C251.7,349.3,248.3,349.3,245.6,350.7z"/>
			</g>
		</g>
		<g>
			<g>
				<path class="st1" d="M334.7,396.7c-2.3,0-4.6-0.6-6.8-1.7l-75.8-39.9c-1.3-0.7-2.9-0.7-4.2,0L172.1,395
					c-4.9,2.6-10.8,2.2-15.3-1.1c-4.5-3.3-6.7-8.7-5.8-14.2l14.5-84.4c0.3-1.5-0.2-3-1.3-4l-61.3-59.8c-4-3.9-5.4-9.6-3.7-14.9
					c1.7-5.3,6.2-9.1,11.7-9.9l84.8-12.3c1.5-0.2,2.8-1.1,3.4-2.5L237,115c2.5-5,7.5-8.1,13-8.1c5.6,0,10.6,3.1,13,8.1l37.9,76.8
					c0.7,1.3,1.9,2.3,3.4,2.5l84.8,12.3c5.5,0.8,10,4.6,11.7,9.9c1.7,5.3,0.3,11-3.7,14.9l-61.3,59.8c-1.1,1-1.6,2.5-1.3,4
					l14.5,84.4c0.9,5.5-1.3,10.9-5.8,14.2C340.7,395.8,337.7,396.7,334.7,396.7z M250,344.6c2.3,0,4.6,0.6,6.8,1.7l75.8,39.9
					c2.3,1.2,4.3,0,4.8-0.3c0.5-0.4,2.3-1.9,1.8-4.4L324.7,297c-0.8-4.7,0.8-9.5,4.2-12.9l61.3-59.8c1.9-1.8,1.4-4,1.2-4.7
					c-0.2-0.6-1.1-2.7-3.7-3.1l-84.8-12.3c-4.7-0.7-8.8-3.7-11-8l-37.9-76.8c-1.2-2.4-3.4-2.5-4.1-2.5c-0.7,0-2.9,0.2-4.1,2.5
					L208,196.3c-2.1,4.3-6.2,7.3-11,8l-84.8,12.3c-2.6,0.4-3.5,2.5-3.7,3.1c-0.2,0.6-0.7,2.8,1.2,4.7l61.3,59.8
					c3.4,3.3,5,8.2,4.2,12.9l-14.5,84.4c-0.4,2.6,1.3,4.1,1.8,4.4c0.5,0.4,2.5,1.6,4.8,0.3l75.8-39.9l0,0
					C245.4,345.2,247.7,344.6,250,344.6z"/>
			</g>
		</g>
	</g>
</g>
</svg>
