<?xml version="1.0" encoding="utf-8"?>
<!-- Generator: Adobe Illustrator 22.0.0, SVG Export Plug-In . SVG Version: 6.00 Build 0)  -->
<svg version="1.1" xmlns="http://www.w3.org/2000/svg" xmlns:xlink="http://www.w3.org/1999/xlink" x="0px" y="0px"
	 viewBox="0 0 256 256" style="enable-background:new 0 0 256 256;" xml:space="preserve">
<style type="text/css">
	.st0{display:none;}
	.st1{display:inline;}
	.st2{fill:none;stroke:#6B1D1D;stroke-width:0.5;stroke-miterlimit:10;}
	.st3{fill:#3A312A;}
	.st4{fill:#87796F;}
	.st5{fill:#D5DE58;}
	.st6{fill:#695B51;}
	.st7{fill:#FCE8CB;}
	.st8{fill:#F16C7A;}
	.st9{fill:#8AC6DD;}
	.st10{fill:#DECAAD;}
	.st11{fill:#D6DF58;}
	.st12{fill-rule:evenodd;clip-rule:evenodd;fill:#FCE8CB;}
	.st13{fill:#F5978A;}
	.st14{fill:#D7E057;}
	.st15{fill-rule:evenodd;clip-rule:evenodd;fill:#87796F;}
	.st16{fill:#6CA8BF;}
	.st17{fill:#B9C239;}
	.st18{fill:#D34E5C;}
	.st19{fill:#FAE6CA;}
	.st20{fill:#F8E4C8;}
	.st21{fill:#8AC5DC;}
	.st22{fill:#EF6D7A;}
	.st23{fill:#EB6E7A;}
	.st24{fill:#89C4DB;}
	.st25{fill-rule:evenodd;clip-rule:evenodd;fill:#F16C7A;}
	.st26{fill:#F7E3C7;}
	.st27{fill:#F6E2C6;}
	.st28{fill:#ED6E7A;}
	.st29{fill:#8AC3DA;}
	.st30{fill:#D5DC57;}
	.st31{fill-rule:evenodd;clip-rule:evenodd;fill:#D7E057;}
	.st32{fill-rule:evenodd;clip-rule:evenodd;fill:#F8E4C8;}
	.st33{fill:#D4DB56;}
	.st34{fill:#F59689;}
	.st35{fill:#DDC9AC;}
	.st36{fill:#D24E5C;}
	.st37{fill:#6A5C52;}
	.st38{fill:#6CA6BE;}
	.st39{fill:#B8C136;}
	.st40{fill-rule:evenodd;clip-rule:evenodd;fill:#FAE6CA;}
</style>
<g id="Layer_2" class="st0">
	<g class="st1">
		<g>
			<line class="st2" x1="0" y1="4.829" x2="256" y2="4.829"/>
			<line class="st2" x1="0" y1="16.56" x2="256" y2="16.56"/>
			<line class="st2" x1="0" y1="28.29" x2="256" y2="28.29"/>
			<line class="st2" x1="0" y1="40.021" x2="256" y2="40.021"/>
			<line class="st2" x1="0" y1="51.751" x2="256" y2="51.751"/>
			<line class="st2" x1="0" y1="63.482" x2="256" y2="63.482"/>
			<line class="st2" x1="0" y1="75.213" x2="256" y2="75.213"/>
			<line class="st2" x1="0" y1="86.943" x2="256" y2="86.943"/>
			<line class="st2" x1="0" y1="98.674" x2="256" y2="98.674"/>
			<line class="st2" x1="0" y1="110.404" x2="256" y2="110.404"/>
			<line class="st2" x1="0" y1="122.135" x2="256" y2="122.135"/>
			<line class="st2" x1="0" y1="133.865" x2="256" y2="133.865"/>
			<line class="st2" x1="0" y1="145.596" x2="256" y2="145.596"/>
			<line class="st2" x1="0" y1="157.326" x2="256" y2="157.326"/>
			<line class="st2" x1="0" y1="169.057" x2="256" y2="169.057"/>
			<line class="st2" x1="0" y1="180.788" x2="256" y2="180.788"/>
			<line class="st2" x1="0" y1="192.518" x2="256" y2="192.518"/>
			<line class="st2" x1="0" y1="204.249" x2="256" y2="204.249"/>
			<line class="st2" x1="0" y1="215.979" x2="256" y2="215.979"/>
			<line class="st2" x1="0" y1="227.71" x2="256" y2="227.71"/>
			<line class="st2" x1="0" y1="239.44" x2="256" y2="239.44"/>
			<line class="st2" x1="0" y1="251.171" x2="256" y2="251.171"/>
		</g>
		<g>
			<line class="st2" x1="251.171" y1="0" x2="251.171" y2="256"/>
			<line class="st2" x1="239.44" y1="0" x2="239.44" y2="256"/>
			<line class="st2" x1="227.71" y1="0" x2="227.71" y2="256"/>
			<line class="st2" x1="215.979" y1="0" x2="215.979" y2="256"/>
			<line class="st2" x1="204.249" y1="0" x2="204.249" y2="256"/>
			<line class="st2" x1="192.518" y1="0" x2="192.518" y2="256"/>
			<line class="st2" x1="180.788" y1="0" x2="180.788" y2="256"/>
			<line class="st2" x1="169.057" y1="0" x2="169.057" y2="256"/>
			<line class="st2" x1="157.326" y1="0" x2="157.326" y2="256"/>
			<line class="st2" x1="145.596" y1="0" x2="145.596" y2="256"/>
			<line class="st2" x1="133.865" y1="0" x2="133.865" y2="256"/>
			<line class="st2" x1="122.135" y1="0" x2="122.135" y2="256"/>
			<line class="st2" x1="110.404" y1="0" x2="110.404" y2="256"/>
			<line class="st2" x1="98.674" y1="0" x2="98.674" y2="256"/>
			<line class="st2" x1="86.943" y1="0" x2="86.943" y2="256"/>
			<line class="st2" x1="75.212" y1="0" x2="75.212" y2="256"/>
			<line class="st2" x1="63.482" y1="0" x2="63.482" y2="256"/>
			<line class="st2" x1="51.751" y1="0" x2="51.751" y2="256"/>
			<line class="st2" x1="40.021" y1="0" x2="40.021" y2="256"/>
			<line class="st2" x1="28.29" y1="0" x2="28.29" y2="256"/>
			<line class="st2" x1="16.56" y1="0" x2="16.56" y2="256"/>
			<line class="st2" x1="4.829" y1="0" x2="4.829" y2="256"/>
		</g>
	</g>
</g>
<g id="Layer_1">
	<g>
		<path class="st14" d="M58.503,58.966c0,0,3.408,12.659,13.222,13.246c0,0-13.1,4.525-13.321,14.202
			c0,0-2.579-13.572-12.925-14.059C45.478,72.355,57.529,70.53,58.503,58.966z"/>
		<path class="st3" d="M58.402,87.914c-0.713,0-1.335-0.506-1.473-1.217c-0.023-0.124-2.494-12.417-11.521-12.842
			c-0.771-0.037-1.388-0.651-1.428-1.421c-0.04-0.771,0.511-1.445,1.273-1.56c0.441-0.069,10.895-1.817,11.754-12.033
			c0.062-0.725,0.635-1.301,1.359-1.367c0.734-0.058,1.394,0.399,1.584,1.101C59.982,58.69,63.21,70.2,71.814,70.715
			c0.714,0.043,1.298,0.584,1.396,1.293c0.098,0.708-0.318,1.388-0.994,1.623c-0.121,0.042-12.119,4.31-12.312,12.819
			c-0.018,0.767-0.61,1.396-1.375,1.46C58.486,87.912,58.444,87.914,58.402,87.914z M50.662,72.184
			c3.878,1.969,6.229,5.746,7.586,8.876c2.026-4.022,5.941-6.787,8.949-8.427c-4.134-1.842-6.783-5.651-8.334-8.722
			C57.07,68.272,53.593,70.779,50.662,72.184z"/>
		<path class="st14" d="M36.804,75.946c0,0,2.411,8.954,9.352,9.369c0,0-9.266,3.201-9.422,10.045c0,0-1.824-9.6-9.142-9.944
			C27.592,85.417,36.115,84.126,36.804,75.946z"/>
		<path class="st3" d="M36.732,96.861c-0.714,0-1.337-0.507-1.473-1.22c-0.016-0.081-1.703-8.442-7.738-8.726
			c-0.77-0.037-1.388-0.651-1.428-1.421c-0.04-0.771,0.511-1.445,1.273-1.561c0.296-0.047,7.363-1.243,7.941-8.114
			c0.061-0.726,0.636-1.303,1.361-1.368c0.716-0.06,1.392,0.399,1.581,1.102l0,0c0.022,0.079,2.228,7.92,7.995,8.265
			c0.714,0.043,1.299,0.584,1.397,1.293c0.097,0.709-0.32,1.388-0.997,1.622c-0.08,0.028-8.282,2.952-8.412,8.662
			c-0.018,0.767-0.611,1.397-1.377,1.461C36.815,96.86,36.773,96.861,36.732,96.861z M32.214,85.334
			c2.107,1.332,3.523,3.394,4.447,5.28c1.376-2.232,3.515-3.872,5.364-4.972c-2.286-1.27-3.884-3.35-4.941-5.224
			C35.911,82.704,34.069,84.293,32.214,85.334z"/>
		<path class="st14" d="M36.804,49.289c0,0,2.411,8.954,9.352,9.37c0,0-9.266,3.201-9.422,10.045c0,0-1.824-9.6-9.142-9.944
			C27.592,58.76,36.115,57.468,36.804,49.289z"/>
		<path class="st3" d="M36.732,70.204c-0.714,0-1.337-0.507-1.473-1.22c-0.016-0.081-1.703-8.441-7.738-8.726
			c-0.77-0.037-1.388-0.651-1.428-1.421c-0.04-0.771,0.511-1.445,1.273-1.561c0.296-0.047,7.363-1.243,7.941-8.114
			c0.061-0.726,0.636-1.303,1.361-1.368c0.716-0.059,1.392,0.399,1.581,1.102l0,0c0.022,0.079,2.228,7.92,7.995,8.265
			c0.714,0.043,1.299,0.584,1.397,1.293c0.097,0.709-0.32,1.388-0.996,1.622c-0.081,0.028-8.283,2.953-8.413,8.662
			c-0.018,0.767-0.611,1.397-1.377,1.461C36.815,70.202,36.773,70.204,36.732,70.204z M32.214,58.676
			c2.107,1.333,3.523,3.394,4.447,5.279c1.376-2.232,3.516-3.872,5.365-4.972c-2.287-1.27-3.885-3.35-4.942-5.224
			C35.911,56.046,34.069,57.635,32.214,58.676z"/>
		<path class="st9" d="M79.919,191.121l0.078-75.616c0-3.181-2.578-5.759-5.759-5.759H58.996c-3.181,0-5.759,2.578-5.759,5.759
			v117.99c0,3.181,2.578,5.759,5.759,5.759h15.242c3.181,0,5.759-2.578,5.759-5.759v-29.113L79.919,191.121z"/>
		<path class="st3" d="M74.238,240.754H58.996c-4.003,0-7.26-3.256-7.26-7.259v-117.99c0-4.002,3.257-7.259,7.26-7.259h15.242
			c4.003,0,7.259,3.256,7.259,7.259l-0.078,75.618c-0.001,0.828-0.672,1.499-1.5,1.499c-0.001,0-0.001,0-0.002,0
			c-0.828-0.001-1.499-0.673-1.498-1.502l0.078-75.616c0-2.347-1.91-4.257-4.259-4.257H58.996c-2.349,0-4.26,1.911-4.26,4.259
			v117.99c0,2.348,1.911,4.259,4.26,4.259h15.242c2.349,0,4.259-1.911,4.259-4.259v-29.113c0-0.829,0.672-1.5,1.5-1.5
			c0.828,0,1.5,0.671,1.5,1.5v29.113C81.497,237.498,78.241,240.754,74.238,240.754z"/>
		<rect x="53.237" y="132.589" class="st8" width="26.76" height="26.875"/>
		<path class="st3" d="M79.997,160.964H53.236c-0.828,0-1.5-0.671-1.5-1.5v-26.875c0-0.829,0.672-1.5,1.5-1.5h26.761
			c0.828,0,1.5,0.671,1.5,1.5v26.875C81.497,160.293,80.825,160.964,79.997,160.964z M54.736,157.964h23.761v-23.875H54.736V157.964
			z"/>
		<path class="st7" d="M33.35,239.254h14.127c3.181,0,5.759-2.578,5.759-5.759v-95.147c0-3.181-2.578-5.759-5.759-5.759H33.35
			c-3.181,0-5.759,2.578-5.759,5.759v95.147C27.592,236.676,30.17,239.254,33.35,239.254z"/>
		<path class="st3" d="M47.477,240.754H33.351c-4.003,0-7.259-3.256-7.259-7.259v-95.147c0-4.002,3.256-7.259,7.259-7.259h14.127
			c4.003,0,7.259,3.256,7.259,7.259v95.147C54.736,237.498,51.48,240.754,47.477,240.754z M33.351,134.089
			c-2.349,0-4.259,1.911-4.259,4.259v95.147c0,2.348,1.91,4.259,4.259,4.259h14.127c2.349,0,4.259-1.911,4.259-4.259v-95.147
			c0-2.348-1.91-4.259-4.259-4.259H33.351z"/>
		<rect x="27.592" y="151.404" class="st14" width="25.645" height="22.134"/>
		<path class="st3" d="M53.236,175.038H27.592c-0.828,0-1.5-0.671-1.5-1.5v-22.134c0-0.829,0.672-1.5,1.5-1.5h25.644
			c0.828,0,1.5,0.671,1.5,1.5v22.134C54.736,174.366,54.064,175.038,53.236,175.038z M29.092,172.038h22.644v-19.134H29.092V172.038
			z"/>
		<rect x="101.642" y="92.378" class="st4" width="102.806" height="117.669"/>
		<path class="st3" d="M204.448,211.547H101.643c-0.828,0-1.5-0.671-1.5-1.5V92.377c0-0.829,0.672-1.5,1.5-1.5h102.806
			c0.828,0,1.5,0.671,1.5,1.5v117.669C205.948,210.876,205.276,211.547,204.448,211.547z M103.143,208.547h99.806V93.877h-99.806
			V208.547z"/>
		<path class="st7" d="M214.579,214.367v24.885H92.873v-24.885c0-15.167,12.294-27.461,27.461-27.461h18.154v-11.853h0.308
			c4.998,3.52,10.098,5.593,14.931,5.593c5.039,0,10.231-2.052,15.249-5.531v11.791h18.143
			C202.286,186.906,214.579,199.2,214.579,214.367z"/>
		<path class="st3" d="M214.579,240.752H92.873c-0.828,0-1.5-0.671-1.5-1.5v-24.885c0-15.969,12.992-28.961,28.961-28.961h16.653
			v-10.353c0-0.829,0.672-1.5,1.5-1.5h0.308c0.31,0,0.611,0.096,0.864,0.273c5.011,3.53,9.744,5.32,14.067,5.32
			c4.512,0,9.355-1.771,14.395-5.264c0.459-0.318,1.059-0.354,1.55-0.096c0.495,0.259,0.805,0.771,0.805,1.329v10.291h16.643
			c15.969,0,28.961,12.992,28.961,28.961v24.885C216.079,240.08,215.407,240.752,214.579,240.752z M94.373,237.752h118.706v-23.385
			c0-14.315-11.646-25.961-25.961-25.961h-18.143c-0.828,0-1.5-0.671-1.5-1.5v-9.035c-4.729,2.839-9.343,4.275-13.749,4.275
			c-4.337,0-8.949-1.513-13.739-4.501v9.261c0,0.829-0.672,1.5-1.5,1.5h-18.153c-14.315,0-25.961,11.646-25.961,25.961V237.752z"/>
		<path class="st8" d="M214.58,214.359v24.895H92.873v-24.895c0-15.167,12.294-27.461,27.461-27.461h5.449l-0.113,0.082
			l18.872,25.029l9.739-7.337l9.739,7.337l18.872-25.029l-0.113-0.082h4.341C202.286,186.898,214.58,199.192,214.58,214.359z"/>
		<path class="st3" d="M214.58,240.754H92.873c-0.828,0-1.5-0.671-1.5-1.5v-24.895c0-15.969,12.992-28.961,28.961-28.961h5.449
			c0.65,0,1.227,0.419,1.427,1.038c0.017,0.049,0.029,0.099,0.04,0.148l17.587,23.324l8.541-6.435c0.533-0.402,1.271-0.402,1.805,0
			l8.542,6.436l17.587-23.326c0.011-0.05,0.024-0.1,0.041-0.15c0.201-0.617,0.776-1.035,1.426-1.035h4.341
			c15.969,0,28.961,12.992,28.961,28.961v24.895C216.08,240.083,215.408,240.754,214.58,240.754z M94.373,237.754H213.08v-23.395
			c0-14.315-11.646-25.961-25.961-25.961H183.7l-18.483,24.514c-0.497,0.663-1.438,0.794-2.1,0.295l-8.837-6.658l-8.836,6.658
			c-0.66,0.498-1.601,0.365-2.1-0.295l-18.484-24.514h-4.526c-14.315,0-25.961,11.646-25.961,25.961V237.754z"/>
		<circle class="st12" cx="106.572" cy="118.832" r="10.805"/>
		<path class="st3" d="M106.572,131.137c-6.785,0-12.306-5.52-12.306-12.305c0-6.785,5.521-12.306,12.306-12.306
			c6.785,0,12.306,5.521,12.306,12.306C118.878,125.617,113.357,131.137,106.572,131.137z M106.572,109.526
			c-5.131,0-9.306,4.174-9.306,9.306c0,5.131,4.175,9.305,9.306,9.305c5.131,0,9.306-4.174,9.306-9.305
			C115.878,113.701,111.703,109.526,106.572,109.526z"/>
		<path class="st12" d="M211.689,118.832c0,5.968-4.838,10.805-10.805,10.805c-5.967,0-10.805-4.838-10.805-10.805
			c0-5.968,4.838-10.805,10.805-10.805C206.851,108.027,211.689,112.864,211.689,118.832z"/>
		<path class="st3" d="M200.883,131.137c-6.785,0-12.305-5.52-12.305-12.305c0-6.785,5.52-12.306,12.305-12.306
			c6.785,0,12.306,5.521,12.306,12.306C213.189,125.617,207.668,131.137,200.883,131.137z M200.883,109.526
			c-5.131,0-9.305,4.174-9.305,9.306c0,5.131,4.174,9.305,9.305,9.305c5.131,0,9.306-4.174,9.306-9.305
			C210.189,113.701,206.014,109.526,200.883,109.526z"/>
		<path class="st7" d="M201.629,113.587c0,26.455-25.478,67.061-47.901,67.061c-21.403,0-47.901-40.606-47.901-67.061
			c0-26.455,21.446-47.901,47.901-47.901C180.183,65.686,201.629,87.132,201.629,113.587z"/>
		<path class="st3" d="M153.727,182.148c-10.3,0-22.715-9.068-33.211-24.257c-9.986-14.452-16.19-31.428-16.19-44.304
			c0-27.24,22.161-49.401,49.4-49.401c27.24,0,49.401,22.161,49.401,49.401c0,13.021-6.056,29.994-15.803,44.296
			C176.816,173.304,164.57,182.148,153.727,182.148z M153.727,67.186c-25.585,0-46.4,20.816-46.4,46.401
			c0,12.298,6,28.621,15.658,42.598c9.936,14.379,21.428,22.963,30.742,22.963c9.691,0,21.323-8.581,31.12-22.954
			c9.426-13.831,15.281-30.156,15.281-42.606C200.129,88.002,179.314,67.186,153.727,67.186z"/>
		<path class="st3" d="M141.492,113.046c0,2.582-2.093,4.675-4.675,4.675c-2.582,0-4.675-2.093-4.675-4.675
			c0-2.582,2.093-4.675,4.675-4.675C139.398,108.371,141.492,110.464,141.492,113.046z"/>
		<path class="st3" d="M175.315,113.046c0,2.582-2.093,4.675-4.675,4.675c-2.582,0-4.675-2.093-4.675-4.675
			c0-2.582,2.093-4.675,4.675-4.675C173.222,108.371,175.315,110.464,175.315,113.046z"/>
		<path class="st13" d="M135.526,126.946c0,3.325-3.606,6.021-8.054,6.021c-4.448,0-8.054-2.696-8.054-6.021
			c0-3.325,3.606-6.021,8.054-6.021C131.92,120.925,135.526,123.621,135.526,126.946z"/>
		<path class="st13" d="M188.038,126.946c0,3.325-3.606,6.021-8.054,6.021c-4.448,0-8.054-2.696-8.054-6.021
			c0-3.325,3.606-6.021,8.054-6.021C184.432,120.925,188.038,123.621,188.038,126.946z"/>
		
			<rect x="133.875" y="180.134" transform="matrix(0.7986 -0.6019 0.6019 0.7986 -89.6527 123.693)" class="st4" width="12.245" height="31.346"/>
		<path class="st3" d="M144.541,213.509c-0.069,0-0.139-0.005-0.209-0.015c-0.393-0.055-0.749-0.265-0.989-0.583l-18.865-25.033
			c-0.239-0.318-0.343-0.718-0.287-1.111c0.056-0.394,0.265-0.75,0.583-0.989l9.779-7.37c0.658-0.499,1.602-0.367,2.101,0.295
			l18.865,25.033c0.498,0.662,0.366,1.602-0.296,2.101l-9.779,7.37C145.183,213.404,144.865,213.509,144.541,213.509z
			 M127.776,187.271l17.06,22.637l7.384-5.564l-17.059-22.637L127.776,187.271z"/>
		
			<rect x="162.441" y="180.134" transform="matrix(-0.7986 -0.6019 0.6019 -0.7986 185.3262 453.6309)" class="st4" width="12.245" height="31.346"/>
		<path class="st3" d="M164.02,213.509c-0.324,0-0.642-0.105-0.903-0.302l-9.778-7.37c-0.661-0.499-0.793-1.439-0.295-2.101
			l18.865-25.033c0.499-0.662,1.44-0.794,2.101-0.295l9.779,7.37c0.318,0.239,0.527,0.595,0.583,0.989
			c0.056,0.393-0.048,0.793-0.287,1.111l-18.866,25.033c-0.24,0.318-0.596,0.527-0.989,0.583
			C164.158,213.504,164.089,213.509,164.02,213.509z M156.342,204.344l7.383,5.564l17.061-22.638l-7.384-5.564L156.342,204.344z"/>
		<path class="st3" d="M115.67,240.754c-0.828,0-1.5-0.671-1.5-1.5v-19.669c0-0.829,0.672-1.5,1.5-1.5s1.5,0.671,1.5,1.5v19.669
			C117.17,240.083,116.498,240.754,115.67,240.754z"/>
		<path class="st3" d="M192.891,240.754c-0.828,0-1.5-0.671-1.5-1.5v-19.669c0-0.829,0.672-1.5,1.5-1.5c0.828,0,1.5,0.671,1.5,1.5
			v19.669C194.391,240.083,193.719,240.754,192.891,240.754z"/>
		<path class="st3" d="M153.727,153.941c-6.808,0-11.717-3.06-14.591-9.093c-0.356-0.748-0.038-1.643,0.71-1.999
			c0.749-0.358,1.643-0.038,1.999,0.709c2.366,4.968,6.253,7.383,11.882,7.383c7.206,0,10.89-4.752,11.831-7.264
			c0.29-0.776,1.151-1.169,1.931-0.879c0.775,0.29,1.169,1.155,0.878,1.931C166.705,149.166,161.415,153.941,153.727,153.941z"/>
		<path class="st4" d="M208.242,96.031c0,4.908-0.638,9.665-1.845,14.194c-12.269-5.915-23.939-13.176-34.752-21.386
			c-3.172-2.404-6.294-4.908-9.277-7.561c-3.66-3.212-7.122-6.673-10.244-10.424c-6.793-8.179-11.78-17.575-15.999-27.36
			c5.327-1.726,11.012-2.653,16.917-2.653c15.79,0,30.034,6.633,40.098,17.266C202.507,67.992,208.242,81.338,208.242,96.031z"/>
		<path class="st3" d="M206.396,111.725c-0.223,0-0.445-0.05-0.651-0.149c-12.062-5.816-23.841-13.063-35.007-21.542
			c-3.565-2.702-6.63-5.2-9.367-7.635c-3.905-3.427-7.407-6.99-10.399-10.584c-6.058-7.294-11.212-16.104-16.224-27.727
			c-0.168-0.388-0.164-0.828,0.011-1.212c0.174-0.385,0.502-0.678,0.904-0.808c5.585-1.809,11.432-2.727,17.379-2.727
			c15.735,0,30.362,6.298,41.188,17.735c10.003,10.557,15.512,24.392,15.512,38.955c0,4.954-0.638,9.859-1.896,14.58
			c-0.115,0.432-0.417,0.791-0.823,0.977C206.823,111.679,206.61,111.725,206.396,111.725z M138.173,44.435
			c4.684,10.596,9.505,18.718,15.105,25.461c2.892,3.473,6.283,6.924,10.079,10.255c2.686,2.389,5.69,4.837,9.194,7.493
			c10.494,7.969,21.532,14.832,32.836,20.419c0.899-3.918,1.355-7.957,1.355-12.032c0-13.792-5.217-26.895-14.69-36.892
			c-10.253-10.833-24.107-16.798-39.01-16.798C147.97,42.341,142.976,43.045,138.173,44.435z"/>
		<path class="st4" d="M193.14,58.107c-9.496,8.658-19.83,16.318-30.772,23.171c-19.401,12.159-40.677,21.755-62.451,29.744
			c-1.347-4.768-2.065-9.795-2.065-14.992c0-24.578,16.069-45.405,38.273-52.537c5.327-1.726,11.012-2.653,16.917-2.653
			C168.832,40.841,183.076,47.474,193.14,58.107z"/>
		<path class="st3" d="M99.917,112.523c-0.234,0-0.469-0.055-0.682-0.164c-0.372-0.19-0.648-0.526-0.762-0.928
			c-1.407-4.982-2.121-10.164-2.121-15.399c0-24.725,15.799-46.412,39.314-53.965c5.582-1.808,11.429-2.725,17.376-2.725
			c15.735,0,30.362,6.298,41.188,17.735c0.276,0.292,0.424,0.684,0.409,1.086c-0.015,0.402-0.19,0.782-0.488,1.053
			c-9.131,8.325-19.557,16.176-30.987,23.334c-17.776,11.141-38.296,20.915-62.731,29.881
			C100.267,112.492,100.092,112.523,99.917,112.523z M153.042,42.341c-5.633,0-11.169,0.868-16.455,2.581
			c-22.272,7.154-37.234,27.693-37.234,51.109c0,4.413,0.534,8.782,1.591,13.014c23.559-8.737,43.405-18.243,60.628-29.038
			c10.802-6.765,20.688-14.15,29.409-21.97C180.844,47.903,167.432,42.341,153.042,42.341z"/>
		<path class="st28" d="M200.586,50.634v27.55c0,4.969-4.019,8.999-8.988,8.999h-79.073c-4.969,0-8.988-4.03-8.988-8.999v-27.55
			l48.453,16.839l0.066,0.033l0.066-0.033L200.586,50.634z"/>
		<path class="st3" d="M191.598,88.684h-79.073c-5.783,0-10.488-4.71-10.488-10.499v-27.55c0-0.485,0.235-0.941,0.631-1.223
			c0.394-0.281,0.903-0.354,1.361-0.194l48.027,16.691l48.038-16.691c0.458-0.158,0.966-0.087,1.361,0.195
			c0.396,0.281,0.631,0.737,0.631,1.222v27.55C202.086,83.974,197.381,88.684,191.598,88.684z M105.036,52.744v25.441
			c0,4.135,3.359,7.499,7.488,7.499h79.073c4.129,0,7.488-3.364,7.488-7.499V52.744l-46.443,16.137
			c-0.392,0.146-0.865,0.154-1.235-0.021L105.036,52.744z"/>
		<path class="st5" d="M210.7,47.112l14.377-4.991v33.48c-1.866-2.407-4.395-3.887-7.199-3.887c-2.772,0-5.3,1.48-7.177,3.887
			V47.112z"/>
		<path class="st3" d="M225.077,77.101c-0.455,0-0.896-0.208-1.186-0.581c-1.652-2.132-3.788-3.306-6.014-3.306
			c-2.202,0-4.331,1.175-5.995,3.309c-0.393,0.505-1.063,0.705-1.67,0.496c-0.607-0.208-1.013-0.778-1.013-1.418V47.112
			c0-0.639,0.404-1.208,1.008-1.417l14.377-4.991c0.459-0.159,0.967-0.086,1.361,0.195c0.395,0.281,0.631,0.737,0.631,1.222v33.48
			c0,0.641-0.407,1.211-1.015,1.419C225.403,77.074,225.239,77.101,225.077,77.101z M212.2,48.179v23.905
			c1.725-1.221,3.665-1.87,5.678-1.87c2.027,0,3.975,0.647,5.699,1.866V44.229L212.2,48.179z"/>
		<path class="st5" d="M228.408,86.088c0,7.937-4.71,14.371-10.521,14.371c-5.811,0-10.521-6.434-10.521-14.371
			c0-7.937,4.711-14.371,10.521-14.371C223.698,71.717,228.408,78.151,228.408,86.088z"/>
		<path class="st3" d="M217.887,101.959c-6.629,0-12.021-7.12-12.021-15.871c0-8.751,5.393-15.871,12.021-15.871
			c6.629,0,12.021,7.12,12.021,15.871C229.908,94.839,224.516,101.959,217.887,101.959z M217.887,73.217
			c-4.975,0-9.021,5.774-9.021,12.871c0,7.097,4.047,12.871,9.021,12.871c4.975,0,9.021-5.774,9.021-12.871
			C226.908,78.991,222.861,73.217,217.887,73.217z"/>
		<polygon class="st28" points="112.263,30.578 79.044,42.123 152.061,67.501 225.077,42.123 152.061,16.746 124.424,26.351 		"/>
		<path class="st3" d="M152.061,69.001c-0.166,0-0.333-0.028-0.492-0.083L78.552,43.541c-0.604-0.21-1.008-0.778-1.008-1.417
			c0-0.639,0.404-1.207,1.008-1.417l33.219-11.545c0.784-0.273,1.637,0.143,1.909,0.924c0.271,0.783-0.142,1.638-0.925,1.91
			L83.613,42.124l68.447,23.79l68.446-23.79l-68.446-23.79l-27.145,9.434c-0.784,0.271-1.637-0.143-1.909-0.925
			c-0.271-0.782,0.142-1.637,0.925-1.909l27.637-9.605c0.318-0.11,0.666-0.11,0.984,0l73.016,25.377
			c0.604,0.21,1.008,0.778,1.008,1.417c0,0.639-0.404,1.207-1.008,1.417l-73.016,25.377
			C152.394,68.973,152.227,69.001,152.061,69.001z"/>
		<path class="st18" d="M213.078,214.356v23.4h-15v-23.4c0-10.75-6.57-19.99-15.9-23.94l1.52-2.02h3.42
			C201.438,188.396,213.078,200.046,213.078,214.356z"/>
	</g>
</g>
</svg>
